<svg width="486" height="136" viewBox="0 0 486 136" fill="none" xmlns="http://www.w3.org/2000/svg">
<rect width="486" height="136" fill="#1E1E1E"/>
<rect width="486" height="136" fill="#FDFDEF"/>
<path d="M43.1 82.81C43.1 82.81 43.03 82.7633 42.89 82.67C42.75 82.6233 42.5633 82.5767 42.33 82.53C42.1433 82.4833 41.91 82.46 41.63 82.46C40.8833 82.2733 40.3467 81.8533 40.02 81.2C39.6933 80.5933 39.6233 79.9167 39.81 79.17C39.9967 78.9833 40.1367 78.5867 40.23 77.98C40.3233 77.3733 40.37 76.8833 40.37 76.51C40.5567 76.1367 40.6733 75.88 40.72 75.74C40.7667 75.5533 40.8833 75.0867 41.07 74.34C41.21 73.5467 41.4433 72.45 41.77 71.05C42.1433 69.6033 42.54 68.0633 42.96 66.43C43.4267 64.7967 43.87 63.2333 44.29 61.74C44.71 60.2467 45.0833 58.9867 45.41 57.96C45.7833 56.9333 46.04 56.35 46.18 56.21C46.18 56.21 46.18 56.14 46.18 56C46.18 55.8133 46.18 55.6267 46.18 55.44C46.18 55.44 46.2033 55.23 46.25 54.81C46.3433 54.3433 46.5767 53.83 46.95 53.27C47.1367 52.7567 47.3 52.1967 47.44 51.59C47.58 50.9833 47.65 50.5867 47.65 50.4C47.8367 50.1667 48.0933 49.6067 48.42 48.72C48.7933 47.7867 49.1433 46.8767 49.47 45.99C49.75 45.2433 50.0533 44.45 50.38 43.61C50.7533 42.77 51.0567 42.0467 51.29 41.44C51.57 40.8333 51.71 40.53 51.71 40.53C51.71 40.3433 51.71 40.25 51.71 40.25C51.71 40.2033 51.71 40.18 51.71 40.18C51.8967 39.9933 52.34 39.06 53.04 37.38C53.7867 35.6533 54.79 33.4367 56.05 30.73C56.2367 30.3567 56.47 29.9367 56.75 29.47C57.03 29.0033 57.17 28.6767 57.17 28.49C57.4033 28.1167 57.73 27.9533 58.15 28C58.57 28 58.99 28.14 59.41 28.42C59.8767 28.7 60.2267 29.0967 60.46 29.61L61.16 30.73L58.64 35.77C57.8933 37.0767 57.2633 38.2667 56.75 39.34C56.2833 40.4133 56.05 41.0433 56.05 41.23C56.05 41.23 55.91 41.6033 55.63 42.35C55.35 43.0967 55.0233 43.9833 54.65 45.01C54.2767 46.0367 53.95 46.97 53.67 47.81C53.1567 49.2567 52.6667 50.4467 52.2 51.38C51.78 52.3133 51.57 52.8733 51.57 53.06C51.57 52.9667 52.0833 52.8967 53.11 52.85C54.1367 52.8033 55.4433 52.78 57.03 52.78C58.6167 52.78 60.2267 52.78 61.86 52.78C63.54 52.7333 65.01 52.71 66.27 52.71C67.5767 52.6633 68.4633 52.5933 68.93 52.5L72.57 52.15L74.95 44.94C75.3233 43.6333 75.8133 42.0467 76.42 40.18C77.0267 38.3133 77.5633 36.7267 78.03 35.42C78.7767 33.2733 79.36 31.9433 79.78 31.43C80.2 30.9167 80.69 30.66 81.25 30.66C81.39 30.66 81.5767 30.7067 81.81 30.8C82.09 30.8467 82.3467 30.9633 82.58 31.15C82.86 31.29 83.0467 31.5 83.14 31.78C83.7 32.2933 83.9567 32.8767 83.91 33.53C83.91 34.1833 83.5367 35.0467 82.79 36.12C82.0433 37.38 81.4133 38.7567 80.9 40.25C80.4333 41.6967 80.0133 42.8867 79.64 43.82C79.64 44.38 79.57 44.8467 79.43 45.22C79.29 45.5467 79.1267 45.8033 78.94 45.99C78.8467 46.0833 78.66 46.4333 78.38 47.04C78.1 47.6467 77.8433 48.2533 77.61 48.86C77.3767 49.4667 77.26 49.84 77.26 49.98C77.26 50.3067 77.19 50.7033 77.05 51.17C76.91 51.6367 76.7467 51.9633 76.56 52.15C76.4667 52.43 76.2567 53.13 75.93 54.25C75.6033 55.37 75.23 56.7 74.81 58.24C74.39 59.7333 73.9467 61.2033 73.48 62.65C73.0133 64.05 72.5933 65.2167 72.22 66.15C72.22 66.4767 72.1033 66.8967 71.87 67.41C71.6367 67.8767 71.52 68.2967 71.52 68.67C71.3333 69.23 71.1 69.93 70.82 70.77C70.54 71.61 70.4 72.1467 70.4 72.38C70.1667 73.4533 69.91 74.55 69.63 75.67C69.3967 76.79 69.1867 77.7467 69 78.54C68.86 79.38 68.79 79.87 68.79 80.01C68.6033 80.1967 68.3233 80.22 67.95 80.08C67.5767 79.94 67.1333 79.7767 66.62 79.59C65.7333 79.0767 65.1967 78.5167 65.01 77.91C64.87 77.35 65.0567 76.5333 65.57 75.46C65.8033 75.0867 66.0833 74.1767 66.41 72.73C66.7833 71.2367 67.1567 69.7667 67.53 68.32C67.81 67.62 68.1133 66.6867 68.44 65.52C68.7667 64.3067 69.0933 63.0933 69.42 61.88C69.7467 60.62 70.0267 59.57 70.26 58.73C70.4933 57.8433 70.6567 57.3533 70.75 57.26C70.75 57.0733 70.75 56.91 70.75 56.77C70.75 56.63 70.75 56.56 70.75 56.56C70.6567 56.4667 70.0733 56.3967 69 56.35C67.9267 56.2567 66.5967 56.2333 65.01 56.28C63.4233 56.28 61.7667 56.3267 60.04 56.42C58.36 56.4667 56.8433 56.5833 55.49 56.77C54.9767 56.77 54.3933 56.77 53.74 56.77C53.0867 56.77 52.5733 56.77 52.2 56.77C51.6867 56.77 51.2433 56.77 50.87 56.77C50.5433 56.77 50.38 56.77 50.38 56.77C50.3333 56.91 50.17 57.4 49.89 58.24C49.61 59.08 49.2833 60.1067 48.91 61.32C48.5367 62.4867 48.14 63.7 47.72 64.96C47.3467 66.1733 47.02 67.2933 46.74 68.32C46.5067 69.3 46.3433 70 46.25 70.42C46.0633 71.26 45.8067 72.31 45.48 73.57C45.2 74.83 44.8733 76.1133 44.5 77.42C44.1733 78.7733 43.87 79.94 43.59 80.92C43.3567 81.9 43.1933 82.53 43.1 82.81ZM92.7634 74.55C91.7834 75.39 90.64 75.88 89.3334 76.02C88.0734 76.16 86.8367 75.9733 85.6234 75.46C84.41 74.9 83.4067 74.06 82.6134 72.94C81.82 71.9133 81.3067 70.7467 81.0734 69.44C80.84 68.0867 80.8167 66.3367 81.0034 64.19C81.1434 62.37 81.7267 60.55 82.7534 58.73C83.78 56.8633 85.0167 55.2067 86.4634 53.76C87.9567 52.3133 89.4267 51.31 90.8734 50.75C91.5734 50.2833 92.1567 50.0733 92.6234 50.12C93.1367 50.12 93.9067 50.1667 94.9334 50.26C96.0067 50.4 96.8 50.61 97.3134 50.89C97.8734 51.17 98.3167 51.5433 98.6434 52.01C99.3434 52.71 99.81 53.41 100.043 54.11C100.277 54.7633 100.393 55.4167 100.393 56.07C100.207 57.0967 99.5067 58.3567 98.2934 59.85C97.1267 61.2967 95.5867 62.4867 93.6734 63.42C92.6467 63.7467 91.5267 63.8867 90.3134 63.84C89.1 63.7933 88.0967 63.49 87.3034 62.93C86.4167 62.5567 85.8334 62.6267 85.5534 63.14C85.2734 63.6067 85.0167 64.7733 84.7834 66.64C84.5967 68.4133 84.7367 69.72 85.2034 70.56C85.67 71.3533 86.3 71.82 87.0934 71.96C88.0267 72.1467 88.75 72.2867 89.2634 72.38C89.8234 72.4267 90.5 72.2167 91.2934 71.75C92.04 71.2833 92.5067 71.0267 92.6934 70.98C92.88 70.8867 93.02 70.7933 93.1134 70.7C93.2534 70.56 93.5567 70.2567 94.0234 69.79C94.35 69.4633 94.6067 69.23 94.7934 69.09C94.98 68.9033 95.19 68.81 95.4234 68.81C95.6567 68.81 95.8667 68.9267 96.0534 69.16C96.24 69.3467 96.4267 69.4867 96.6134 69.58C97.08 69.58 97.1734 69.86 96.8934 70.42C96.66 70.98 96.17 71.6567 95.4234 72.45C94.6767 73.1967 93.79 73.8967 92.7634 74.55ZM92.6934 59.71C93.2067 59.4767 93.7434 59.15 94.3034 58.73C94.8634 58.2633 95.33 57.7733 95.7034 57.26C96.1234 56.7 96.3334 56.2333 96.3334 55.86C96.3334 55.2067 96.03 54.67 95.4234 54.25C94.8167 53.7833 93.9067 53.7133 92.6934 54.04C92.18 54.18 91.5967 54.53 90.9434 55.09C90.29 55.6033 89.66 56.1867 89.0534 56.84C88.4934 57.4933 88.0267 58.0767 87.6534 58.59C87.3267 59.1033 87.21 59.4067 87.3034 59.5C87.4434 59.7333 87.84 59.92 88.4934 60.06C89.1467 60.1533 89.87 60.1767 90.6634 60.13C91.5034 60.0833 92.18 59.9433 92.6934 59.71ZM105.991 77C105.104 77.2333 104.381 77.0467 103.821 76.44C103.307 75.8333 103.004 74.9 102.911 73.64C102.817 72.38 102.957 70.8867 103.331 69.16C103.564 68.6 103.751 68.0633 103.891 67.55C104.031 66.99 104.101 66.5467 104.101 66.22C104.194 65.7533 104.381 65.0767 104.661 64.19C104.941 63.2567 105.244 62.3 105.571 61.32C105.897 60.34 106.201 59.4767 106.481 58.73C106.807 57.9367 107.017 57.4467 107.111 57.26C107.297 57.26 107.461 57.0967 107.601 56.77C107.741 56.4433 107.811 56.1167 107.811 55.79C107.811 55.4167 107.881 54.9967 108.021 54.53C108.207 54.0633 108.394 53.7367 108.581 53.55C108.581 53.3167 108.627 53.06 108.721 52.78C108.861 52.4533 108.931 52.1967 108.931 52.01C108.931 51.8233 108.977 51.6367 109.071 51.45C109.211 51.2633 109.281 51.0767 109.281 50.89C109.607 50.2833 110.027 49.3267 110.541 48.02C111.101 46.6667 111.684 45.1733 112.291 43.54C112.944 41.9067 113.551 40.2967 114.111 38.71C114.671 37.1233 115.114 35.7933 115.441 34.72C115.814 33.6 116.001 32.9233 116.001 32.69C116.001 32.3167 116.094 32.0367 116.281 31.85C116.467 31.6633 116.747 31.57 117.121 31.57C117.261 31.43 117.424 31.3367 117.611 31.29C117.844 31.2433 118.054 31.22 118.241 31.22C118.241 31.22 118.334 31.3133 118.521 31.5C118.707 31.6867 118.987 31.9667 119.361 32.34C119.734 32.6667 119.944 33.04 119.991 33.46C120.084 33.88 120.131 34.37 120.131 34.93C120.131 35.5367 120.061 36.0733 119.921 36.54C119.781 37.0067 119.501 37.6833 119.081 38.57C118.661 39.4567 118.007 40.8333 117.121 42.7C116.747 43.6333 116.351 44.52 115.931 45.36C115.511 46.1533 115.301 46.6433 115.301 46.83C115.301 47.0167 115.207 47.2967 115.021 47.67C114.881 48.0433 114.717 48.51 114.531 49.07C114.344 49.4433 114.087 50.0033 113.761 50.75C113.434 51.45 113.084 52.22 112.711 53.06C112.384 53.8533 112.104 54.5533 111.871 55.16C111.637 55.72 111.521 56.0467 111.521 56.14C111.521 56.3267 111.497 56.5133 111.451 56.7C111.451 56.8867 111.357 57.0733 111.171 57.26C110.984 57.26 110.867 57.4 110.821 57.68C110.821 57.9133 110.821 58.03 110.821 58.03C110.821 58.4967 110.447 59.7333 109.701 61.74C108.954 64.3067 108.254 66.6633 107.601 68.81C106.994 70.9567 106.691 72.6833 106.691 73.99C106.691 75.11 106.667 75.8567 106.621 76.23C106.574 76.5567 106.364 76.8133 105.991 77ZM116.837 73.71C116.37 73.43 116.02 73.15 115.787 72.87C115.553 72.59 115.437 72.1933 115.437 71.68C115.437 70.98 115.53 70.2567 115.717 69.51C115.903 68.7167 116.09 67.9467 116.277 67.2C116.37 66.36 116.487 65.52 116.627 64.68C116.813 63.7933 117.14 62.9767 117.607 62.23C118.12 60.4567 118.657 58.7067 119.217 56.98C119.777 55.2067 120.267 53.3867 120.687 51.52C121.293 49.7933 121.83 48.2767 122.297 46.97C122.81 45.6167 123.44 43.9133 124.187 41.86C124.607 40.6933 124.957 39.4567 125.237 38.15C125.563 36.7967 126.053 35.5833 126.707 34.51C126.987 34.09 127.197 33.74 127.337 33.46C127.523 33.1333 127.71 32.83 127.897 32.55C127.943 32.3633 128.083 32.2467 128.317 32.2C128.597 32.1533 128.9 32.1767 129.227 32.27C129.553 32.3633 129.81 32.5267 129.997 32.76C130.137 32.7133 130.3 32.8533 130.487 33.18C130.72 33.46 130.93 33.7867 131.117 34.16C131.303 34.5333 131.373 34.86 131.327 35.14C131.327 35.3267 131.28 35.5833 131.187 35.91C131.14 36.2367 131.023 36.54 130.837 36.82C130.65 37.0067 130.463 37.2867 130.277 37.66C130.137 37.9867 129.903 38.4533 129.577 39.06C129.39 39.6667 129.227 40.2967 129.087 40.95C128.947 41.5567 128.76 42.1167 128.527 42.63C128.34 43.19 128.107 43.7267 127.827 44.24C127.593 44.7533 127.43 45.1733 127.337 45.5C127.01 46.5733 126.613 47.6233 126.147 48.65C125.727 49.6767 125.353 50.7733 125.027 51.94C124.7 53.06 124.373 54.2267 124.047 55.44C123.72 56.6067 123.253 57.7267 122.647 58.8C122.32 59.3133 122.087 59.9667 121.947 60.76C121.807 61.5533 121.667 62.3467 121.527 63.14C121.247 63.98 120.99 64.7733 120.757 65.52C120.57 66.22 120.477 66.6633 120.477 66.85C120.197 67.8767 119.987 68.9033 119.847 69.93C119.753 70.91 119.52 71.7733 119.147 72.52C119.1 72.9867 119.007 73.36 118.867 73.64C118.727 73.92 118.493 74.0833 118.167 74.13C117.84 74.13 117.397 73.99 116.837 73.71ZM134.893 74.34C133.913 74.5267 133.283 74.5967 133.003 74.55C132.77 74.4567 132.396 74.1767 131.883 73.71C131.136 73.3367 130.506 72.87 129.993 72.31C129.526 71.75 129.176 71.1667 128.943 70.56C128.756 69.9067 128.686 69.37 128.733 68.95C128.873 67.3167 129.27 65.5667 129.923 63.7C130.576 61.8333 131.37 60.0367 132.303 58.31C133.236 56.5833 134.24 55.1133 135.313 53.9C136.433 52.64 137.506 51.8233 138.533 51.45C139.466 51.0767 140.353 50.9367 141.193 51.03C142.033 51.1233 142.64 51.5667 143.013 52.36C143.713 53.7133 143.55 54.5767 142.523 54.95C142.383 54.95 142.22 55.02 142.033 55.16C141.846 55.2533 141.753 55.3933 141.753 55.58C141.94 55.6733 142.453 55.6967 143.293 55.65C144.133 55.5567 144.973 55.4167 145.813 55.23C146.7 54.9967 147.283 54.7633 147.563 54.53C147.843 54.39 148.053 54.32 148.193 54.32C148.333 54.32 148.683 54.3667 149.243 54.46C150.036 54.6933 150.433 54.9733 150.433 55.3C150.433 55.4867 150.503 55.6733 150.643 55.86C150.783 56 150.946 56.07 151.133 56.07C151.46 56.1167 151.413 56.3267 150.993 56.7C150.62 57.0733 149.966 57.5867 149.033 58.24C148.146 58.8 147.586 59.1733 147.353 59.36C147.166 59.5 147.143 59.8267 147.283 60.34C147.656 61.2267 147.68 62.2533 147.353 63.42C147.026 64.5867 146.443 65.7767 145.603 66.99C144.763 68.2033 143.736 69.3467 142.523 70.42C141.356 71.4467 140.096 72.3333 138.743 73.08C137.436 73.78 136.153 74.2 134.893 74.34ZM133.703 71.26C133.89 71.26 134.216 71.1667 134.683 70.98C135.15 70.7467 135.523 70.56 135.803 70.42C135.99 70.2333 136.223 70.0233 136.503 69.79C136.83 69.51 137.086 69.3467 137.273 69.3C137.46 69.3 137.693 69.23 137.973 69.09C138.253 68.9033 138.65 68.5533 139.163 68.04C139.676 67.48 140.353 66.6633 141.193 65.59C142.126 64.5633 142.85 63.63 143.363 62.79C143.876 61.9033 144.016 61.0867 143.783 60.34C143.736 60.1533 143.596 60.0367 143.363 59.99C143.176 59.9433 142.92 59.8267 142.593 59.64C142.126 59.64 141.683 59.5233 141.263 59.29C140.89 59.01 140.446 58.66 139.933 58.24L138.813 56.84L137.623 58.03C136.876 58.7767 136.083 59.8967 135.243 61.39C134.45 62.8367 133.773 64.33 133.213 65.87C132.653 67.3633 132.326 68.5533 132.233 69.44C132.186 70.14 132.303 70.6067 132.583 70.84C132.863 71.0733 133.236 71.2133 133.703 71.26ZM148.861 82.53C148.394 82.53 148.091 82.4833 147.951 82.39C147.857 82.3433 147.717 82.1567 147.531 81.83C147.531 81.5033 147.601 81.2233 147.741 80.99C147.927 80.7567 148.184 80.4767 148.511 80.15C148.977 79.6833 149.514 79.1 150.121 78.4C150.727 77.7467 151.287 77.07 151.801 76.37C152.361 75.67 152.757 75.11 152.991 74.69C153.177 74.1767 153.341 73.57 153.481 72.87C153.667 72.17 153.854 71.4 154.041 70.56C154.041 70.1867 154.041 69.86 154.041 69.58C154.087 69.2533 154.204 68.9967 154.391 68.81C154.717 68.4833 154.997 68.3433 155.231 68.39C155.511 68.4367 155.744 68.7167 155.931 69.23C156.164 69.7433 156.327 70.5133 156.421 71.54C156.607 72.5667 156.607 73.5 156.421 74.34C156.234 75.18 155.884 76.2067 155.371 77.42C155.277 77.7467 154.974 78.2367 154.461 78.89C153.947 79.5433 153.434 80.15 152.921 80.71C152.407 81.27 152.081 81.55 151.941 81.55C151.754 81.55 151.591 81.5967 151.451 81.69C151.311 81.83 151.147 81.9933 150.961 82.18C150.774 82.3667 150.494 82.46 150.121 82.46C149.794 82.5067 149.374 82.53 148.861 82.53Z" fill="#1E1E1E" fill-opacity="0.93"/>
<path d="M175.44 79.17C175.113 78.6567 174.367 78.33 173.2 78.19C172.08 78.05 170.703 78.0267 169.07 78.12C168.417 78.2133 167.787 78.1667 167.18 77.98C166.573 77.84 166.083 77.5833 165.71 77.21C165.383 76.8833 165.267 76.5333 165.36 76.16C165.407 75.6 165.873 75.1567 166.76 74.83C167.693 74.5033 169.163 74.3167 171.17 74.27L174.88 74.2L175.58 72.8C175.767 72.2867 176 71.5633 176.28 70.63C176.56 69.6967 176.863 68.6933 177.19 67.62C177.377 66.9667 177.657 66.08 178.03 64.96C178.403 63.84 178.8 62.65 179.22 61.39C179.64 60.13 180.013 59.01 180.34 58.03C180.667 57.0033 180.877 56.28 180.97 55.86C181.157 55.44 181.413 54.74 181.74 53.76C182.067 52.7333 182.37 51.7067 182.65 50.68C182.977 49.6067 183.187 48.8367 183.28 48.37C184.493 44.6833 185.287 42.07 185.66 40.53C186.033 38.9433 186.127 38.1267 185.94 38.08C185.753 38.08 185.287 38.1033 184.54 38.15C183.84 38.1967 183.047 38.2667 182.16 38.36C181.32 38.4067 180.55 38.4767 179.85 38.57C179.197 38.6633 178.8 38.7567 178.66 38.85C178.427 39.1767 178.03 39.2467 177.47 39.06C176.91 38.8733 176.56 38.5467 176.42 38.08C176.373 37.66 176.35 37.3333 176.35 37.1C176.397 36.8667 176.537 36.68 176.77 36.54C177.097 36.26 177.727 35.9567 178.66 35.63C179.593 35.2567 180.643 34.93 181.81 34.65C183.023 34.37 184.167 34.16 185.24 34.02C186.033 33.9267 186.827 33.7633 187.62 33.53C188.413 33.25 189.043 32.9233 189.51 32.55C189.93 32.41 190.327 32.2933 190.7 32.2C191.12 32.1067 191.54 32.0833 191.96 32.13C192.333 32.3633 192.963 32.48 193.85 32.48C194.783 32.48 195.763 32.4567 196.79 32.41C199.403 32.1767 201.153 32.1067 202.04 32.2C202.973 32.2933 203.603 32.6667 203.93 33.32C204.163 34.2067 204.21 34.9067 204.07 35.42C203.93 35.8867 203.463 36.0967 202.67 36.05C202.25 36.1433 201.48 36.2367 200.36 36.33C199.287 36.3767 198.143 36.4233 196.93 36.47C193.617 36.75 191.843 37.0767 191.61 37.45C191.423 37.6367 191.26 37.8233 191.12 38.01C191.027 38.1967 190.887 38.4067 190.7 38.64C190.747 38.8267 190.63 39.4333 190.35 40.46C190.117 41.44 189.813 42.4433 189.44 43.47C189.253 44.0767 188.973 44.94 188.6 46.06C188.227 47.18 187.83 48.3467 187.41 49.56C187.037 50.7267 186.687 51.8 186.36 52.78C186.033 53.7133 185.8 54.3433 185.66 54.67C185.473 55.09 185.31 55.5567 185.17 56.07C185.077 56.5367 185.007 56.8867 184.96 57.12C184.307 59.4067 183.723 61.3433 183.21 62.93C182.743 64.5167 182.3 65.9167 181.88 67.13C181.507 68.2967 181.157 69.44 180.83 70.56C180.503 71.6333 180.153 72.8233 179.78 74.13C179.78 74.13 180.13 74.1067 180.83 74.06C181.577 73.9667 182.557 73.8733 183.77 73.78C185.963 73.5467 187.527 73.4067 188.46 73.36C189.44 73.3133 190.093 73.3833 190.42 73.57C190.747 73.71 190.98 73.99 191.12 74.41C192.053 75.67 192.17 76.5333 191.47 77C190.77 77.4667 189.113 77.6767 186.5 77.63C184.073 77.7233 182.207 77.7933 180.9 77.84C179.64 77.9333 178.753 78.05 178.24 78.19C177.773 78.33 177.493 78.5633 177.4 78.89C177.4 79.2633 177.213 79.45 176.84 79.45C176.467 79.45 176 79.3567 175.44 79.17ZM214.47 74.48C214.284 74.1067 214.05 73.8267 213.77 73.64C213.49 73.4067 213.35 73.1967 213.35 73.01C213.35 72.8233 213.327 72.6367 213.28 72.45C213.28 72.2167 213.187 72.0067 213 71.82C212.767 71.54 212.79 70.91 213.07 69.93C213.35 68.9033 213.817 67.6667 214.47 66.22C215.124 64.7267 215.894 63.1633 216.78 61.53C217.154 61.1567 217.527 60.6667 217.9 60.06C218.274 59.4533 218.554 59.0567 218.74 58.87C218.74 58.6833 218.81 58.52 218.95 58.38C219.09 58.1933 219.254 58.1 219.44 58.1V57.68C219.44 57.4467 219.65 57.05 220.07 56.49C220.537 55.93 221.097 55.3233 221.75 54.67C222.404 53.97 223.08 53.3167 223.78 52.71C224.48 52.0567 225.064 51.59 225.53 51.31C226.51 50.6567 227.514 50.26 228.54 50.12C229.614 49.98 230.524 50.2133 231.27 50.82C231.41 50.96 231.644 51.1933 231.97 51.52C232.297 51.8467 232.67 52.22 233.09 52.64C233.557 53.0133 234.024 53.41 234.49 53.83L237.08 56.14L235.82 59.64C235.214 61.5067 235.05 63.14 235.33 64.54C235.657 65.94 236.124 67.1533 236.73 68.18C236.964 68.6933 237.43 69.1833 238.13 69.65C238.877 70.1167 239.577 70.3967 240.23 70.49C240.604 70.5367 240.954 70.6767 241.28 70.91C241.607 71.1433 241.77 71.5167 241.77 72.03C241.77 72.4967 241.677 72.87 241.49 73.15C241.304 73.43 240.977 73.6167 240.51 73.71C238.97 73.8967 237.524 73.5233 236.17 72.59C234.864 71.6567 233.65 70.1167 232.53 67.97C232.344 67.69 232.087 67.1767 231.76 66.43C231.48 65.6367 231.317 65.1233 231.27 64.89C231.084 65.1233 230.734 65.5667 230.22 66.22C229.707 66.8267 229.31 67.27 229.03 67.55C225.717 70.91 222.847 73.1733 220.42 74.34C218.04 75.46 216.057 75.5067 214.47 74.48ZM216.99 70.56C216.99 70.8867 217.48 70.8867 218.46 70.56C219.487 70.1867 220.584 69.5333 221.75 68.6C223.337 67.2467 224.924 65.7533 226.51 64.12C228.144 62.4867 229.45 60.97 230.43 59.57L231.97 57.05C231.504 55.9767 230.99 55.2533 230.43 54.88C229.917 54.46 229.474 54.25 229.1 54.25C228.494 54.25 227.584 54.81 226.37 55.93C225.204 57.05 223.944 58.5433 222.59 60.41C221.237 62.2767 219.954 64.33 218.74 66.57C218.274 67.5033 217.854 68.4133 217.48 69.3C217.154 70.14 216.99 70.56 216.99 70.56ZM276.107 74.06C275.874 73.9667 275.524 73.7333 275.057 73.36C274.59 72.9867 274.194 72.3567 273.867 71.47C273.54 70.5367 273.377 69.2533 273.377 67.62C273.424 66.22 273.447 65.1233 273.447 64.33C273.494 63.5367 273.33 63.14 272.957 63.14C272.584 63.14 271.86 63.5133 270.787 64.26C269.76 64.96 268.57 65.9167 267.217 67.13C265.864 68.3433 264.487 69.6967 263.087 71.19C262.62 71.7033 262.154 72.1933 261.687 72.66C261.267 73.08 260.847 73.36 260.427 73.5C260.007 73.5933 259.517 73.43 258.957 73.01L258.187 72.38C257.954 72.1467 257.814 71.9133 257.767 71.68C257.72 71.4 257.744 71.0967 257.837 70.77L259.447 66.15C260.194 64.47 260.707 63.2567 260.987 62.51C261.267 61.7167 261.407 61.2267 261.407 61.04C261.407 60.8067 261.337 60.7133 261.197 60.76C260.824 60.8067 260.264 61.04 259.517 61.46C258.77 61.8333 258.28 62.2067 258.047 62.58C257.86 62.58 257.58 62.79 257.207 63.21C256.834 63.63 256.367 64.0267 255.807 64.4C255.48 64.96 254.827 65.6833 253.847 66.57C252.914 67.4567 251.98 68.3667 251.047 69.3C250.44 69.8133 249.834 70.4433 249.227 71.19C248.667 71.9367 248.177 72.59 247.757 73.15C247.384 73.71 247.127 73.99 246.987 73.99C246.38 73.99 245.82 73.8267 245.307 73.5C244.84 73.1733 244.49 72.6367 244.257 71.89C243.884 71.0967 243.884 70 244.257 68.6C244.63 67.1533 245.05 65.2867 245.517 63C245.704 62.3 245.82 61.7867 245.867 61.46C245.914 61.1333 245.984 60.8067 246.077 60.48C246.217 60.1067 246.427 59.5467 246.707 58.8C247.034 58.0533 247.524 56.9333 248.177 55.44C248.504 54.5533 248.69 53.9 248.737 53.48C248.83 53.0133 248.877 52.6867 248.877 52.5C248.877 52.0333 248.994 51.6367 249.227 51.31C249.507 50.9833 249.834 50.75 250.207 50.61C250.58 50.47 250.93 50.4467 251.257 50.54C251.77 50.6333 252.214 50.89 252.587 51.31C253.007 51.73 253.24 52.3133 253.287 53.06C253.334 53.62 253.287 54.1333 253.147 54.6C253.007 55.02 252.867 55.4167 252.727 55.79L251.957 57.68C251.724 58.1933 251.42 58.94 251.047 59.92C250.674 60.9 250.347 61.81 250.067 62.65C249.787 63.4433 249.647 63.91 249.647 64.05C249.694 64.19 249.857 64.1667 250.137 63.98C250.417 63.7467 250.767 63.4433 251.187 63.07C251.654 62.65 252.12 62.2533 252.587 61.88C253.567 60.9467 254.664 60.06 255.877 59.22C257.137 58.3333 258.327 57.5867 259.447 56.98C260.567 56.3733 261.43 55.9767 262.037 55.79C262.83 55.79 263.367 55.93 263.647 56.21C263.974 56.49 264.51 57.0033 265.257 57.75C265.584 58.0767 265.77 58.4967 265.817 59.01C265.864 59.5233 265.84 60.0133 265.747 60.48C265.7 60.6667 265.56 61.1333 265.327 61.88C265.094 62.58 264.86 63.2567 264.627 63.91C264.44 64.5633 264.347 64.89 264.347 64.89C264.347 64.89 264.604 64.6567 265.117 64.19C265.677 63.7233 266.284 63.2333 266.937 62.72C267.59 62.16 268.08 61.74 268.407 61.46C270.227 60.06 271.814 59.1733 273.167 58.8C274.52 58.4267 275.617 58.9167 276.457 60.27C277.017 60.7833 277.297 61.3433 277.297 61.95C277.344 62.5567 277.367 63.6067 277.367 65.1C277.414 65.7067 277.46 66.43 277.507 67.27C277.554 68.11 277.6 68.88 277.647 69.58C277.74 70.2333 277.834 70.63 277.927 70.77C278.067 70.9567 278.324 71.12 278.697 71.26C279.117 71.3533 279.654 71.4467 280.307 71.54C281.007 71.6333 281.427 71.9367 281.567 72.45C281.707 72.9633 281.404 73.4533 280.657 73.92C279.957 74.34 279.187 74.5267 278.347 74.48C277.507 74.4333 276.76 74.2933 276.107 74.06ZM326.91 82.53C326.723 82.53 326.513 82.4367 326.28 82.25C326.047 82.11 325.813 81.9 325.58 81.62C325.253 81.2933 325.02 80.8967 324.88 80.43C324.787 79.9633 324.74 79.52 324.74 79.1C324.74 78.5867 324.74 77.9333 324.74 77.14C324.74 76.3933 324.693 75.5767 324.6 74.69C324.6 73.3367 324.577 71.9367 324.53 70.49C324.483 69.0433 324.553 68.11 324.74 67.69C324.6 67.0367 324.577 66.3367 324.67 65.59C324.81 64.7967 324.88 64.19 324.88 63.77L324.6 61.88H320.75C319.863 62.02 318.533 62.0667 316.76 62.02C315.033 61.9267 312.957 61.81 310.53 61.67L309.62 63.14C309.48 63.3267 309.153 63.8167 308.64 64.61C308.173 65.4033 307.753 66.29 307.38 67.27C307.147 67.8767 306.867 68.5533 306.54 69.3C306.213 70 305.863 70.7233 305.49 71.47C305.163 72.17 304.79 72.8233 304.37 73.43C303.623 74.8767 303.04 75.88 302.62 76.44C302.247 76.9533 301.943 77.21 301.71 77.21C301.29 77.21 300.917 77.1867 300.59 77.14C300.31 77.0933 299.937 76.9067 299.47 76.58C298.537 76.16 298.117 75.5067 298.21 74.62C298.35 73.7333 298.887 72.6133 299.82 71.26C300.053 70.9333 300.263 70.6067 300.45 70.28C300.637 69.9533 300.73 69.79 300.73 69.79C300.73 69.6967 300.893 69.2767 301.22 68.53C301.593 67.7367 302.013 66.8733 302.48 65.94C302.993 65.0067 303.483 64.1667 303.95 63.42C304.417 62.6267 304.767 62.1833 305 62.09C305.84 61.1567 305.77 60.27 304.79 59.43C304.463 59.29 304.323 59.1033 304.37 58.87C304.417 58.59 304.58 58.3333 304.86 58.1C305.187 57.8667 305.56 57.75 305.98 57.75C306.447 57.5167 306.773 57.3533 306.96 57.26C307.193 57.1667 307.31 57.0267 307.31 56.84C307.31 56.7467 307.45 56.3733 307.73 55.72C308.057 55.02 308.453 54.2267 308.92 53.34C309.387 52.4067 309.853 51.5433 310.32 50.75C310.833 49.91 311.253 49.28 311.58 48.86C312.093 47.5533 312.49 46.69 312.77 46.27C313.05 45.8033 313.283 45.36 313.47 44.94C313.703 44.7067 314.03 44.1933 314.45 43.4C314.87 42.6067 315.313 41.8367 315.78 41.09C316.433 40.4367 317.017 39.7367 317.53 38.99C318.09 38.1967 318.58 37.5433 319 37.03C319.233 36.5167 319.56 35.9567 319.98 35.35C320.447 34.7433 320.913 34.1133 321.38 33.46C322.267 32.48 322.967 31.8733 323.48 31.64C324.04 31.36 324.787 31.43 325.72 31.85C326.793 32.3167 327.587 33.0633 328.1 34.09C328.613 35.1167 328.94 36.61 329.08 38.57C329.22 39.6433 329.36 40.8567 329.5 42.21C329.687 43.5167 329.663 44.4967 329.43 45.15C329.43 45.99 329.407 47.0167 329.36 48.23C329.36 49.4433 329.43 50.5867 329.57 51.66C329.383 52.5467 329.313 53.55 329.36 54.67C329.407 55.7433 329.43 56.49 329.43 56.91C329.43 57.33 329.407 58.0067 329.36 58.94C329.313 59.8267 329.29 60.5967 329.29 61.25C329.243 63.0233 329.197 64.4933 329.15 65.66C329.15 66.8267 329.15 67.9467 329.15 69.02C329.197 70.0467 329.22 71.26 329.22 72.66C329.313 76.3467 329.22 78.8667 328.94 80.22C328.66 81.62 327.983 82.39 326.91 82.53ZM312.7 58.03C312.7 58.03 313.237 57.9833 314.31 57.89C315.43 57.75 316.643 57.7033 317.95 57.75C319.49 57.61 320.773 57.5867 321.8 57.68C322.827 57.7267 323.433 57.7033 323.62 57.61C324.133 57.6567 324.483 57.4467 324.67 56.98C324.857 56.5133 324.95 55.9067 324.95 55.16C324.857 54.1333 324.787 52.7567 324.74 51.03C324.693 49.2567 324.647 47.4833 324.6 45.71C324.6 43.89 324.623 42.3967 324.67 41.23C324.67 40.3433 324.623 39.55 324.53 38.85C324.437 38.1033 324.39 37.73 324.39 37.73C324.297 37.59 323.993 37.7767 323.48 38.29C322.967 38.8033 322.383 39.4567 321.73 40.25C321.123 41.0433 320.54 41.8133 319.98 42.56C319.467 43.3067 319.093 43.8667 318.86 44.24C318.673 44.4733 318.323 45.08 317.81 46.06C317.297 47.04 316.713 48.09 316.06 49.21C314.333 51.9633 313.237 54.0633 312.77 55.51C312.303 56.9567 312.28 57.7967 312.7 58.03ZM353.717 76.3C353.53 76.3 353.25 76.2767 352.877 76.23C352.55 76.1367 352.27 75.9267 352.037 75.6C351.337 74.76 350.894 74.06 350.707 73.5C350.52 72.94 350.497 72.1233 350.637 71.05C350.73 70.35 350.777 69.7433 350.777 69.23C350.824 68.67 350.87 68.2033 350.917 67.83C350.73 67.6433 350.38 67.7833 349.867 68.25C349.4 68.67 348.747 69.2067 347.907 69.86C346.32 71.68 344.897 73.08 343.637 74.06C342.424 74.9933 341.327 75.6233 340.347 75.95C339.367 76.23 338.434 76.3233 337.547 76.23C336.754 76.1367 336.124 75.81 335.657 75.25C335.19 74.6433 334.887 73.8733 334.747 72.94C334.654 72.0067 334.654 71.0033 334.747 69.93C334.934 68.39 335.26 66.92 335.727 65.52C336.24 64.12 337.057 62.5567 338.177 60.83C338.69 59.8967 339.367 58.9867 340.207 58.1C341.094 57.1667 342.05 56.35 343.077 55.65C344.15 54.9033 345.177 54.3667 346.157 54.04C347.23 53.62 348.327 53.3867 349.447 53.34C350.567 53.2467 351.57 53.34 352.457 53.62C353.017 53.9 353.46 54.04 353.787 54.04C354.16 54.04 354.44 53.8067 354.627 53.34C354.86 52.9667 355.094 52.4067 355.327 51.66C355.56 50.8667 355.84 50.19 356.167 49.63L357.707 45.08C358.22 43.82 358.78 42.49 359.387 41.09C359.994 39.69 360.717 37.9867 361.557 35.98C362.35 34.4867 363.004 33.6233 363.517 33.39C364.03 33.11 364.614 33.2967 365.267 33.95C365.78 34.5567 365.967 35.2567 365.827 36.05C365.687 36.7967 365.267 38.01 364.567 39.69C364.24 40.2033 363.96 40.6933 363.727 41.16C363.494 41.58 363.167 42.2567 362.747 43.19C362.14 44.6367 361.58 45.9433 361.067 47.11C360.554 48.23 360.017 49.5133 359.457 50.96C359.27 51.7067 359.014 52.57 358.687 53.55C358.407 54.53 358.174 55.4167 357.987 56.21C357.847 56.9567 357.684 57.6567 357.497 58.31C357.357 58.9167 357.194 59.22 357.007 59.22C356.634 59.64 356.284 60.3867 355.957 61.46C355.63 62.4867 355.35 63.56 355.117 64.68C354.93 65.8 354.767 66.7333 354.627 67.48C354.534 68.04 354.464 68.7633 354.417 69.65C354.37 70.5367 354.347 71.4 354.347 72.24C354.347 73.0333 354.347 73.5933 354.347 73.92C354.347 74.9467 354.324 75.6 354.277 75.88C354.23 76.16 354.044 76.3 353.717 76.3ZM338.807 71.89C339.787 71.89 340.814 71.47 341.887 70.63C343.007 69.79 344.127 68.8567 345.247 67.83C345.947 67.1767 346.694 66.3133 347.487 65.24C348.327 64.1667 349.12 63.0933 349.867 62.02C350.66 60.9467 351.29 60.0133 351.757 59.22C352.224 58.38 352.457 57.8667 352.457 57.68C352.457 57.4467 352.247 57.2833 351.827 57.19C351.407 57.0967 350.917 57.05 350.357 57.05C349.844 57.0033 349.424 57.0267 349.097 57.12C348.07 57.3533 347.044 57.82 346.017 58.52C345.037 59.22 343.964 60.27 342.797 61.67C341.584 63.1633 340.58 64.7033 339.787 66.29C339.04 67.8767 338.574 69.2067 338.387 70.28C338.2 71.3533 338.34 71.89 338.807 71.89ZM366.777 74.83C366.077 74.7367 365.471 74.2467 364.957 73.36C364.491 72.4267 364.211 71.5867 364.117 70.84C364.164 70.4667 364.211 69.93 364.257 69.23C364.351 68.53 364.444 67.8067 364.537 67.06C364.724 66.1733 364.981 65.1 365.307 63.84C365.634 62.5333 365.961 61.2267 366.287 59.92C366.661 58.6133 366.987 57.4933 367.267 56.56C367.547 55.6267 367.734 55.0667 367.827 54.88C368.061 54.5067 368.434 54.4133 368.947 54.6C369.461 54.7867 369.881 55.0667 370.207 55.44C370.487 55.8133 370.651 56.2567 370.697 56.77C370.791 57.2833 370.721 58.03 370.487 59.01C370.301 59.99 369.927 61.4367 369.367 63.35C368.854 65.2167 368.457 66.7333 368.177 67.9C367.944 69.02 367.851 70.21 367.897 71.47C367.711 73.0567 367.571 74.0367 367.477 74.41C367.384 74.7367 367.151 74.8767 366.777 74.83ZM374.827 46.9C374.641 47.04 374.454 47.11 374.267 47.11C374.127 47.0633 373.871 46.9233 373.497 46.69C373.171 46.6433 372.751 46.4333 372.237 46.06C371.771 45.64 371.351 45.22 370.977 44.8C370.651 44.3333 370.487 44.0533 370.487 43.96C370.441 43.4933 370.464 42.91 370.557 42.21C370.697 41.4633 370.954 40.81 371.327 40.25C371.701 39.6433 372.237 39.3167 372.937 39.27C373.124 39.27 373.287 39.2933 373.427 39.34C373.567 39.3867 373.987 39.55 374.687 39.83C375.061 40.53 375.434 41.3233 375.807 42.21C376.181 43.05 376.344 43.89 376.297 44.73C376.251 45.5233 375.761 46.2467 374.827 46.9ZM382.634 80.5C381.094 80.2667 380.044 79.6833 379.484 78.75C378.971 77.8633 378.854 76.4867 379.134 74.62C379.414 73.7333 379.577 72.94 379.624 72.24C379.717 71.4933 379.927 71.0267 380.254 70.84C380.254 70.84 380.277 70.77 380.324 70.63C380.417 70.49 380.394 70.35 380.254 70.21C380.254 69.6033 380.464 68.7633 380.884 67.69C380.977 67.41 381.094 67.0833 381.234 66.71C381.421 66.29 381.514 66.08 381.514 66.08C381.281 65.7067 381.281 65.4033 381.514 65.17C381.747 64.9367 381.981 64.7267 382.214 64.54C382.494 64.3067 382.517 64.05 382.284 63.77C382.191 63.5833 382.307 63.1633 382.634 62.51C382.961 61.81 383.334 61.0867 383.754 60.34C384.174 59.5933 384.454 59.01 384.594 58.59C384.594 58.4967 384.711 58.17 384.944 57.61C385.177 57.05 385.457 56.3967 385.784 55.65C386.111 54.9033 386.414 54.2267 386.694 53.62C387.021 53.0133 387.231 52.6167 387.324 52.43C387.791 52.1967 387.604 52.0333 386.764 51.94C385.924 51.8467 385.037 51.8233 384.104 51.87C382.657 51.8233 381.491 51.7533 380.604 51.66C379.764 51.5667 379.064 51.3567 378.504 51.03C377.944 50.3767 377.734 49.91 377.874 49.63C378.061 49.3033 378.621 49.1167 379.554 49.07C380.161 49.0233 380.627 49 380.954 49C381.327 49 381.794 48.9767 382.354 48.93C382.961 48.8367 383.894 48.72 385.154 48.58L388.724 48.3L388.934 47.11C389.307 46.5033 389.611 45.9667 389.844 45.5C390.124 44.9867 390.357 44.4733 390.544 43.96C390.731 43.4467 390.871 42.91 390.964 42.35C390.964 42.35 391.174 41.9767 391.594 41.23C392.014 40.4367 392.271 39.62 392.364 38.78C392.924 37.8467 393.414 37.0067 393.834 36.26C394.254 35.4667 394.511 34.9767 394.604 34.79C395.117 34.37 395.467 34.16 395.654 34.16C395.887 34.16 396.354 34.3933 397.054 34.86C397.474 35.0933 397.847 35.3733 398.174 35.7C398.501 36.0267 398.711 36.3767 398.804 36.75C398.897 37.0767 398.757 37.4033 398.384 37.73C398.291 37.9167 398.151 38.2667 397.964 38.78C397.777 39.2467 397.637 39.6433 397.544 39.97C397.264 40.2967 396.914 40.8333 396.494 41.58C396.121 42.28 395.864 43.0033 395.724 43.75C395.351 44.5433 395.001 45.2667 394.674 45.92C394.347 46.5267 394.091 46.83 393.904 46.83C393.997 47.2967 394.277 47.53 394.744 47.53C395.211 47.4833 395.981 47.4367 397.054 47.39C397.941 47.2967 398.547 47.2033 398.874 47.11C399.247 46.97 399.667 47.0167 400.134 47.25C400.367 47.5767 400.554 47.95 400.694 48.37C400.834 48.79 400.857 49.1867 400.764 49.56C400.717 49.8867 400.531 50.12 400.204 50.26C399.971 50.26 399.481 50.4 398.734 50.68C398.034 50.9133 397.147 51.0533 396.074 51.1L392.364 51.45L391.174 53.83C390.847 54.4367 390.567 54.9967 390.334 55.51C390.101 55.9767 389.937 56.2567 389.844 56.35C389.844 56.63 389.681 57.05 389.354 57.61C389.074 58.17 388.771 58.7767 388.444 59.43C388.164 60.2233 387.837 60.9467 387.464 61.6C387.137 62.2533 386.974 62.58 386.974 62.58C386.787 62.58 386.694 62.72 386.694 63C386.927 63.56 386.857 63.98 386.484 64.26C386.251 64.4 386.041 64.61 385.854 64.89C385.714 65.1233 385.644 65.24 385.644 65.24C385.831 65.4267 385.854 65.66 385.714 65.94C385.621 66.22 385.481 66.5233 385.294 66.85C385.294 67.2233 385.177 67.76 384.944 68.46C384.757 69.16 384.547 69.8133 384.314 70.42C384.361 71.26 384.407 71.7967 384.454 72.03C384.501 72.2633 384.617 72.3567 384.804 72.31C385.037 72.3567 385.247 72.3567 385.434 72.31C385.621 72.2633 385.807 72.24 385.994 72.24C386.647 71.96 386.297 73.5933 384.944 77.14C384.197 78.3067 383.684 79.1467 383.404 79.66C383.124 80.22 382.867 80.5 382.634 80.5ZM398.038 90.93C396.918 91.2567 395.681 91.3033 394.328 91.07C393.021 90.8833 391.878 90.4867 390.898 89.88C389.871 89.2733 389.288 88.5967 389.148 87.85C389.101 87.57 389.194 87.2667 389.428 86.94C389.614 86.6133 389.871 86.38 390.198 86.24C390.478 86.1467 390.734 86.24 390.968 86.52C391.341 86.7533 392.018 87.0333 392.998 87.36C393.978 87.7333 395.074 87.8033 396.288 87.57C397.361 87.3367 398.411 86.7067 399.438 85.68C400.511 84.6533 401.374 83.6967 402.028 82.81C402.401 82.25 403.031 81.2467 403.918 79.8C404.804 78.3533 405.714 76.7667 406.648 75.04C407.628 73.2667 408.444 71.6333 409.098 70.14C409.238 69.7667 409.401 69.3233 409.588 68.81C409.774 68.2967 410.008 67.8767 410.288 67.55C410.568 66.99 410.801 66.4767 410.988 66.01C411.221 65.4967 411.361 65.1467 411.408 64.96C411.454 64.7267 411.664 64.26 412.038 63.56C412.411 62.86 412.761 62.16 413.088 61.46C413.321 60.76 413.671 59.7333 414.138 58.38C414.604 57.0267 415.071 55.93 415.538 55.09C416.098 54.0167 416.541 53.1533 416.868 52.5C417.241 51.8 417.638 51.38 418.058 51.24C418.478 50.9133 418.758 50.75 418.898 50.75C419.084 50.75 419.434 50.89 419.948 51.17C420.508 51.73 420.858 52.29 420.998 52.85C421.138 53.3633 421.068 54.0167 420.788 54.81C420.554 55.5567 420.088 56.5833 419.388 57.89C419.014 59.01 418.594 60.0367 418.128 60.97C417.708 61.8567 417.381 62.44 417.148 62.72C416.914 63.28 416.634 63.91 416.308 64.61C416.028 65.2633 415.771 65.87 415.538 66.43C414.698 68.2967 413.974 69.8133 413.368 70.98C412.761 72.1467 412.224 73.22 411.758 74.2C411.291 75.18 410.801 76.3233 410.288 77.63C409.214 79.3567 408.164 80.99 407.138 82.53C406.158 84.1167 405.108 85.5867 403.988 86.94C403.521 87.36 402.938 87.85 402.238 88.41C401.538 88.97 400.814 89.4833 400.068 89.95C399.368 90.4167 398.691 90.7433 398.038 90.93ZM407.488 74.13C406.788 74.0367 406.088 73.6167 405.388 72.87C404.734 72.1233 404.221 71.33 403.848 70.49C403.474 69.65 403.334 69.0433 403.428 68.67C403.428 68.4367 403.428 68.25 403.428 68.11C403.428 67.97 403.428 67.9 403.428 67.9C403.148 67.9 402.891 67.55 402.658 66.85C402.471 66.15 402.331 65.24 402.238 64.12C402.144 63 402.074 61.81 402.028 60.55C402.028 59.29 402.074 58.1 402.168 56.98C402.354 56.1867 402.448 55.3233 402.448 54.39C402.448 53.41 402.471 52.64 402.518 52.08C402.471 51.3333 402.541 50.8433 402.728 50.61C402.914 50.33 403.101 50.12 403.288 49.98C404.594 49.42 405.458 49.77 405.878 51.03C406.344 52.2433 406.461 54.53 406.228 57.89C406.134 59.7567 406.134 61.6233 406.228 63.49C406.321 65.3567 406.578 66.99 406.998 68.39C407.464 69.79 408.094 70.7467 408.888 71.26C409.214 71.4467 409.378 71.7033 409.378 72.03C409.378 72.3567 409.284 72.7067 409.098 73.08C408.911 73.4067 408.654 73.6867 408.328 73.92C408.048 74.1067 407.768 74.1767 407.488 74.13ZM427.705 74.69C427.145 74.7833 426.539 74.69 425.885 74.41C425.232 74.13 424.649 73.7333 424.135 73.22C423.669 72.7067 423.365 72.17 423.225 71.61C423.039 70.63 423.155 69.4167 423.575 67.97C424.042 66.4767 424.695 64.9133 425.535 63.28C426.422 61.6 427.402 59.99 428.475 58.45C429.595 56.91 430.739 55.58 431.905 54.46C433.119 53.2933 434.239 52.5 435.265 52.08C435.779 51.7533 436.175 51.5433 436.455 51.45C436.782 51.31 437.109 51.2867 437.435 51.38C437.809 51.4733 438.345 51.7067 439.045 52.08C439.699 52.2667 440.189 52.4767 440.515 52.71C440.842 52.9433 441.262 53.41 441.775 54.11C442.149 54.81 442.429 55.51 442.615 56.21C442.802 56.91 442.965 57.7033 443.105 58.59C443.479 59.7567 443.619 60.5267 443.525 60.9C443.432 61.2267 443.292 61.4833 443.105 61.67C442.732 62.1367 442.639 62.37 442.825 62.37C442.825 62.37 442.802 62.4633 442.755 62.65C442.755 62.79 442.662 63.0233 442.475 63.35C442.149 64.3767 441.892 65.45 441.705 66.57C441.565 67.6433 441.589 68.53 441.775 69.23C442.149 70.2567 442.825 70.8633 443.805 71.05C444.785 71.2367 445.789 70.8167 446.815 69.79C447.329 69.4167 447.819 69.09 448.285 68.81C448.752 68.4833 448.985 68.5067 448.985 68.88C448.985 68.88 449.055 68.95 449.195 69.09C449.335 69.1833 449.499 69.23 449.685 69.23C449.919 69.23 450.059 69.3233 450.105 69.51C450.199 69.6967 450.199 69.9533 450.105 70.28C450.059 70.56 449.919 70.8867 449.685 71.26C448.985 71.96 448.635 72.4267 448.635 72.66C448.635 72.66 448.542 72.7533 448.355 72.94C448.215 73.08 447.959 73.3133 447.585 73.64C446.745 74.1533 445.672 74.41 444.365 74.41C443.105 74.41 442.125 74.1533 441.425 73.64C440.725 73.1267 440.072 72.4267 439.465 71.54C438.905 70.6533 438.532 69.8833 438.345 69.23L437.995 68.53L435.965 69.86C435.452 70.3733 434.892 70.8633 434.285 71.33C433.725 71.7967 433.352 72.1233 433.165 72.31C433.025 72.4967 432.862 72.66 432.675 72.8C432.535 72.94 432.372 73.01 432.185 73.01C431.999 73.01 431.835 73.01 431.695 73.01C431.555 73.01 431.485 73.01 431.485 73.01C431.485 73.1967 431.252 73.43 430.785 73.71C430.365 73.99 429.852 74.2233 429.245 74.41C428.685 74.5967 428.172 74.69 427.705 74.69ZM427.005 70.91C427.285 70.91 427.775 70.7 428.475 70.28C429.222 69.8133 430.039 69.2767 430.925 68.67C431.859 68.0633 432.675 67.4567 433.375 66.85C434.122 66.2433 434.635 65.7767 434.915 65.45C435.102 65.2633 435.405 64.96 435.825 64.54C436.245 64.0733 436.619 63.6767 436.945 63.35C438.019 62.1367 438.765 60.8067 439.185 59.36C439.605 57.8667 439.559 56.7 439.045 55.86C438.859 55.3467 438.625 55.0667 438.345 55.02C438.065 54.9733 437.482 55.1367 436.595 55.51C436.035 55.8367 435.335 56.4667 434.495 57.4C433.702 58.2867 432.839 59.3367 431.905 60.55C431.019 61.7167 430.179 62.93 429.385 64.19C428.592 65.45 427.939 66.6167 427.425 67.69C426.912 68.7633 426.655 69.6033 426.655 70.21C426.655 70.3967 426.702 70.56 426.795 70.7C426.935 70.84 427.005 70.91 427.005 70.91Z" fill="#1E1E1E" fill-opacity="0.93"/>
<path d="M135.403 111.887C135.097 112.031 134.746 112.085 134.35 112.049C133.972 112.031 133.594 111.923 133.216 111.725C132.838 111.545 132.505 111.302 132.217 110.996C132.091 110.852 132.01 110.708 131.974 110.564C131.938 110.438 131.956 110.258 132.028 110.024C132.118 109.7 132.235 109.538 132.379 109.538C132.577 109.538 132.802 109.709 133.054 110.051C133.558 110.501 134.053 110.627 134.539 110.429C135.043 110.231 135.574 109.7 136.132 108.836C136.24 108.566 136.411 108.179 136.645 107.675C136.879 107.171 137.122 106.631 137.374 106.055C137.644 105.479 137.887 104.948 138.103 104.462C138.319 103.958 138.463 103.598 138.535 103.382C138.535 103.382 138.535 103.355 138.535 103.301C138.553 103.229 138.598 103.157 138.67 103.085C138.688 103.013 138.733 102.869 138.805 102.653C138.877 102.437 138.949 102.185 139.021 101.897C139.093 101.699 139.192 101.402 139.318 101.006C139.462 100.61 139.606 100.196 139.75 99.764C139.912 99.332 140.047 98.972 140.155 98.684C140.245 98.306 140.353 97.901 140.479 97.469C140.623 97.019 140.74 96.677 140.83 96.443C140.902 96.299 141.01 96.011 141.154 95.579C141.298 95.129 141.46 94.643 141.64 94.121C141.856 93.419 142.063 92.771 142.261 92.177C142.459 91.565 142.612 91.07 142.72 90.692C142.846 90.296 142.891 90.071 142.855 90.017C142.855 90.017 142.693 90.044 142.369 90.098C142.063 90.152 141.721 90.215 141.343 90.287C141.037 90.413 140.731 90.458 140.425 90.422C140.137 90.368 140.002 90.305 140.02 90.233C140.02 90.161 140.02 90.125 140.02 90.125C140.02 90.107 140.02 90.098 140.02 90.098C139.966 90.134 139.894 90.125 139.804 90.071C139.714 89.999 139.633 89.909 139.561 89.801C139.489 89.675 139.453 89.567 139.453 89.477C139.453 89.333 139.633 89.207 139.993 89.099C140.353 88.973 140.812 88.874 141.37 88.802C141.73 88.748 142.081 88.703 142.423 88.667C142.783 88.613 143.08 88.568 143.314 88.532C143.386 88.478 143.512 88.478 143.692 88.532C143.89 88.586 144.088 88.658 144.286 88.748C144.502 88.838 144.655 88.937 144.745 89.045C144.853 89.189 144.916 89.342 144.934 89.504C144.97 89.666 144.952 89.891 144.88 90.179C144.808 90.467 144.673 90.881 144.475 91.421C144.295 91.943 144.034 92.663 143.692 93.581C143.296 94.697 142.945 95.714 142.639 96.632C142.333 97.532 142.054 98.279 141.802 98.873C141.748 99.071 141.649 99.359 141.505 99.737C141.379 100.115 141.253 100.502 141.127 100.898C141.001 101.276 140.902 101.591 140.83 101.843C140.686 102.185 140.551 102.554 140.425 102.95C140.299 103.346 140.2 103.661 140.128 103.895C140.128 104.039 140.092 104.201 140.02 104.381C139.948 104.561 139.867 104.696 139.777 104.786C139.777 104.786 139.714 104.948 139.588 105.272C139.462 105.578 139.309 105.947 139.129 106.379C138.985 106.739 138.823 107.135 138.643 107.567C138.481 108.017 138.328 108.359 138.184 108.593C138.094 108.809 137.986 109.007 137.86 109.187C137.734 109.385 137.671 109.52 137.671 109.592C137.671 109.592 137.662 109.619 137.644 109.673C137.644 109.727 137.608 109.754 137.536 109.754C137.536 109.754 137.509 109.772 137.455 109.808C137.401 109.862 137.374 109.934 137.374 110.024C137.338 110.132 137.239 110.276 137.077 110.456C136.933 110.636 136.753 110.825 136.537 111.023C136.339 111.221 136.132 111.392 135.916 111.536C135.718 111.698 135.547 111.815 135.403 111.887ZM143.878 106.028C143.806 105.884 143.716 105.776 143.608 105.704C143.5 105.614 143.446 105.533 143.446 105.461C143.446 105.389 143.437 105.317 143.419 105.245C143.419 105.155 143.383 105.074 143.311 105.002C143.221 104.894 143.23 104.651 143.338 104.273C143.446 103.877 143.626 103.4 143.878 102.842C144.13 102.266 144.427 101.663 144.769 101.033C144.913 100.889 145.057 100.7 145.201 100.466C145.345 100.232 145.453 100.079 145.525 100.007C145.525 99.935 145.552 99.872 145.606 99.818C145.66 99.746 145.723 99.71 145.795 99.71V99.548C145.795 99.458 145.876 99.305 146.038 99.089C146.218 98.873 146.434 98.639 146.686 98.387C146.938 98.117 147.199 97.865 147.469 97.631C147.739 97.379 147.964 97.199 148.144 97.091C148.522 96.839 148.909 96.686 149.305 96.632C149.719 96.578 150.07 96.668 150.358 96.902C150.412 96.956 150.502 97.046 150.628 97.172C150.754 97.298 150.898 97.442 151.06 97.604C151.24 97.748 151.42 97.901 151.6 98.063L152.599 98.954L152.113 100.304C151.879 101.024 151.816 101.654 151.924 102.194C152.05 102.734 152.23 103.202 152.464 103.598C152.554 103.796 152.734 103.985 153.004 104.165C153.292 104.345 153.562 104.453 153.814 104.489C153.958 104.507 154.093 104.561 154.219 104.651C154.345 104.741 154.408 104.885 154.408 105.083C154.408 105.263 154.372 105.407 154.3 105.515C154.228 105.623 154.102 105.695 153.922 105.731C153.328 105.803 152.77 105.659 152.248 105.299C151.744 104.939 151.276 104.345 150.844 103.517C150.772 103.409 150.673 103.211 150.547 102.923C150.439 102.617 150.376 102.419 150.358 102.329C150.286 102.419 150.151 102.59 149.953 102.842C149.755 103.076 149.602 103.247 149.494 103.355C148.216 104.651 147.109 105.524 146.173 105.974C145.255 106.406 144.49 106.424 143.878 106.028ZM144.85 104.516C144.85 104.642 145.039 104.642 145.417 104.516C145.813 104.372 146.236 104.12 146.686 103.76C147.298 103.238 147.91 102.662 148.522 102.032C149.152 101.402 149.656 100.817 150.034 100.277L150.628 99.305C150.448 98.891 150.25 98.612 150.034 98.468C149.836 98.306 149.665 98.225 149.521 98.225C149.287 98.225 148.936 98.441 148.468 98.873C148.018 99.305 147.532 99.881 147.01 100.601C146.488 101.321 145.993 102.113 145.525 102.977C145.345 103.337 145.183 103.688 145.039 104.03C144.913 104.354 144.85 104.516 144.85 104.516ZM157.189 105.353C157.063 105.245 156.901 104.921 156.703 104.381C156.523 103.841 156.343 103.211 156.163 102.491C156.001 101.753 155.866 101.078 155.758 100.466C155.686 100.106 155.605 99.8 155.515 99.548C155.443 99.296 155.38 99.089 155.326 98.927C155.236 98.603 155.209 98.333 155.245 98.117C155.281 97.901 155.407 97.73 155.623 97.604C155.713 97.55 155.821 97.514 155.947 97.496C156.091 97.46 156.199 97.451 156.271 97.469C156.487 97.541 156.685 97.874 156.865 98.468C157.045 99.044 157.207 99.809 157.351 100.763C157.423 101.321 157.513 101.798 157.621 102.194C157.729 102.59 157.783 102.824 157.783 102.896C157.855 103.04 157.936 103.184 158.026 103.328C158.134 103.454 158.26 103.445 158.404 103.301C158.476 103.229 158.62 103.067 158.836 102.815C159.07 102.563 159.295 102.293 159.511 102.005C159.889 101.501 160.186 101.087 160.402 100.763C160.636 100.439 160.897 100.097 161.185 99.737C161.311 99.557 161.455 99.359 161.617 99.143C161.779 98.927 161.941 98.729 162.103 98.549C162.283 98.351 162.445 98.234 162.589 98.198C163.021 98.126 163.255 98.216 163.291 98.468C163.327 98.72 163.165 99.098 162.805 99.602C162.661 99.818 162.544 100.025 162.454 100.223C162.382 100.403 162.31 100.529 162.238 100.601C162.094 100.889 161.869 101.258 161.563 101.708C161.257 102.14 160.96 102.545 160.672 102.923C160.384 103.283 160.186 103.517 160.078 103.625C160.006 103.697 159.844 103.832 159.592 104.03C159.358 104.228 159.133 104.48 158.917 104.786C158.485 105.2 158.143 105.452 157.891 105.542C157.639 105.632 157.405 105.569 157.189 105.353ZM166.182 106.217C166.038 106.253 165.849 106.271 165.615 106.271C165.381 106.253 165.174 106.226 164.994 106.19C164.832 106.136 164.751 106.082 164.751 106.028C164.751 105.938 164.706 105.893 164.616 105.893C164.616 105.893 164.571 105.857 164.481 105.785C164.409 105.713 164.292 105.641 164.13 105.569C163.968 105.317 163.887 105.047 163.887 104.759C163.887 104.453 163.968 103.976 164.13 103.328C164.184 102.878 164.355 102.356 164.643 101.762C164.949 101.15 165.318 100.529 165.75 99.899C166.182 99.269 166.632 98.702 167.1 98.198C167.586 97.694 168.027 97.325 168.423 97.091C168.675 96.839 168.981 96.704 169.341 96.686C169.701 96.668 170.043 96.749 170.367 96.929C170.547 97.019 170.727 97.163 170.907 97.361C171.087 97.559 171.258 97.775 171.42 98.009C171.582 98.243 171.717 98.477 171.825 98.711C171.879 98.909 171.906 99.089 171.906 99.251C171.924 99.395 171.924 99.575 171.906 99.791C171.906 100.007 171.879 100.331 171.825 100.763C171.735 101.087 171.654 101.483 171.582 101.951C171.528 102.419 171.501 102.824 171.501 103.166C171.465 103.508 171.501 103.751 171.609 103.895C171.735 104.039 171.915 104.048 172.149 103.922C172.365 103.814 172.572 103.769 172.77 103.787C172.968 103.787 173.121 103.841 173.229 103.949C173.355 104.057 173.418 104.219 173.418 104.435C173.418 104.651 173.31 104.876 173.094 105.11C172.896 105.326 172.644 105.515 172.338 105.677C172.05 105.821 171.771 105.893 171.501 105.893C171.303 105.893 171.114 105.776 170.934 105.542C170.754 105.29 170.592 104.993 170.448 104.651C170.322 104.291 170.205 103.949 170.097 103.625L169.935 103.004L168.774 104.111C168.54 104.363 168.306 104.597 168.072 104.813C167.856 105.011 167.721 105.155 167.667 105.245C167.577 105.407 167.406 105.569 167.154 105.731C166.92 105.893 166.596 106.055 166.182 106.217ZM166.263 104.624C166.569 104.444 166.92 104.183 167.316 103.841C167.712 103.481 168.099 103.094 168.477 102.68C168.855 102.248 169.17 101.852 169.422 101.492C169.728 101.078 169.962 100.691 170.124 100.331C170.286 99.971 170.403 99.629 170.475 99.305C170.403 99.107 170.286 98.9 170.124 98.684C169.962 98.45 169.818 98.324 169.692 98.306C169.296 98.306 168.873 98.558 168.423 99.062C167.991 99.548 167.568 100.079 167.154 100.655C167.082 100.745 166.983 100.889 166.857 101.087C166.731 101.285 166.605 101.474 166.479 101.654C166.371 101.816 166.299 101.924 166.263 101.978C166.209 102.05 166.101 102.257 165.939 102.599C165.795 102.923 165.651 103.256 165.507 103.598C165.363 103.922 165.291 104.138 165.291 104.246C165.291 104.354 165.3 104.471 165.318 104.597C165.354 104.723 165.444 104.804 165.588 104.84C165.732 104.876 165.957 104.804 166.263 104.624ZM182.667 109.025C182.433 109.043 182.217 108.935 182.019 108.701C181.821 108.467 181.659 108.125 181.533 107.675C181.425 107.243 181.371 106.73 181.371 106.136C181.299 105.398 181.362 104.462 181.56 103.328C181.758 102.176 182.055 100.889 182.451 99.467C182.595 98.981 182.802 98.387 183.072 97.685C183.342 96.983 183.621 96.29 183.909 95.606C184.215 94.922 184.485 94.346 184.719 93.878C184.953 93.392 185.097 93.122 185.151 93.068C185.259 93.104 185.312 93.023 185.312 92.825C185.312 92.789 185.385 92.654 185.529 92.42C185.673 92.186 185.808 91.934 185.934 91.664C186.168 91.322 186.447 90.989 186.771 90.665C187.095 90.323 187.428 90.026 187.77 89.774C188.13 89.504 188.454 89.315 188.742 89.207C189.012 89.099 189.282 89.045 189.552 89.045C189.894 89.045 190.2 89.126 190.47 89.288C190.758 89.45 190.983 89.675 191.145 89.963C191.307 90.233 191.388 90.539 191.388 90.881C191.388 91.169 191.325 91.448 191.199 91.718C191.145 91.988 191.037 92.276 190.875 92.582C190.731 92.87 190.578 93.14 190.416 93.392C190.272 93.626 190.155 93.806 190.065 93.932C189.831 94.058 189.633 94.112 189.471 94.094C189.309 94.076 189.273 94.004 189.363 93.878C189.363 93.806 189.381 93.716 189.417 93.608C189.471 93.5 189.507 93.383 189.525 93.257C189.525 93.221 189.561 93.113 189.633 92.933C189.723 92.753 189.768 92.573 189.768 92.393C189.93 91.745 190.002 91.286 189.984 91.016C189.984 90.746 189.903 90.611 189.741 90.611C189.651 90.593 189.507 90.629 189.309 90.719C189.111 90.809 188.931 90.917 188.769 91.043C188.607 91.151 188.526 91.25 188.526 91.34C188.526 91.394 188.526 91.43 188.526 91.448C188.472 91.43 188.301 91.583 188.013 91.907C187.743 92.213 187.437 92.591 187.095 93.041C186.771 93.473 186.501 93.869 186.285 94.229C186.141 94.535 185.952 94.94 185.718 95.444C185.484 95.948 185.214 96.596 184.908 97.388L184.692 98.036L185.124 98.09C185.268 98.108 185.493 98.099 185.799 98.063C186.105 98.009 186.402 97.955 186.69 97.901C187.302 97.811 187.734 97.811 187.986 97.901C188.238 97.991 188.427 98.18 188.553 98.468C188.751 98.9 188.607 99.197 188.121 99.359C187.635 99.503 186.708 99.611 185.34 99.683C185.052 99.647 184.8 99.638 184.584 99.656C184.386 99.656 184.251 99.692 184.179 99.764C184.107 99.8 184.008 99.998 183.882 100.358C183.756 100.7 183.621 101.114 183.477 101.6C183.351 102.068 183.252 102.518 183.18 102.95C183.036 103.508 182.937 104.084 182.883 104.678C182.829 105.254 182.811 105.794 182.829 106.298C182.847 106.784 182.892 107.162 182.964 107.432C183.072 107.864 183.099 108.215 183.045 108.485C183.009 108.755 182.883 108.935 182.667 109.025ZM191.01 105.623C190.668 105.317 190.407 105.002 190.227 104.678C190.065 104.354 189.939 103.841 189.849 103.139C189.813 102.815 189.849 102.392 189.957 101.87C190.065 101.33 190.218 100.763 190.416 100.169C190.614 99.575 190.839 99.035 191.091 98.549C191.343 98.045 191.595 97.667 191.847 97.415C192.063 97.145 192.234 97.001 192.36 96.983C192.504 96.947 192.756 97.01 193.116 97.172C193.314 97.406 193.413 97.658 193.413 97.928C193.413 98.198 193.305 98.504 193.089 98.846C192.729 99.332 192.414 99.944 192.144 100.682C191.892 101.402 191.721 102.05 191.631 102.626C191.451 103.238 191.37 103.652 191.388 103.868C191.406 104.084 191.568 104.228 191.874 104.3C192.216 104.372 192.621 104.246 193.089 103.922C193.557 103.58 194.016 103.112 194.466 102.518C194.916 101.906 195.276 101.24 195.546 100.52C195.654 100.268 195.735 99.971 195.789 99.629C195.861 99.287 195.933 99.035 196.005 98.873C196.095 98.513 196.221 98.252 196.383 98.09C196.545 97.91 196.716 97.811 196.896 97.793C197.076 97.757 197.229 97.793 197.355 97.901C197.517 97.973 197.616 98.063 197.652 98.171C197.688 98.261 197.688 98.513 197.652 98.927C197.652 99.593 197.508 100.16 197.22 100.628C196.932 101.096 196.689 101.591 196.491 102.113C196.329 102.491 196.086 102.914 195.762 103.382C195.456 103.85 195.114 104.273 194.736 104.651C194.376 105.029 194.025 105.29 193.683 105.434C193.179 105.758 192.729 105.92 192.333 105.92C191.955 105.902 191.514 105.803 191.01 105.623ZM199.14 107.243C198.906 107.153 198.735 107.018 198.627 106.838C198.519 106.64 198.456 106.361 198.438 106.001C198.438 105.785 198.474 105.497 198.546 105.137C198.618 104.777 198.699 104.363 198.789 103.895C198.789 103.859 198.789 103.823 198.789 103.787C198.807 103.733 198.816 103.697 198.816 103.679C198.834 103.607 198.852 103.499 198.87 103.355C198.906 103.211 198.933 103.103 198.951 103.031C198.969 102.941 198.978 102.941 198.978 103.031L199.167 102.302C199.257 101.978 199.347 101.654 199.437 101.33C199.527 101.006 199.608 100.727 199.68 100.493C199.752 100.241 199.797 100.097 199.815 100.061C199.815 100.061 199.851 99.962 199.923 99.764C199.995 99.548 200.067 99.341 200.139 99.143C200.445 98.297 200.724 97.586 200.976 97.01C201.228 96.416 201.453 95.984 201.651 95.714C201.669 95.66 201.696 95.597 201.732 95.525C201.768 95.435 201.795 95.363 201.813 95.309C201.831 95.165 201.849 95.057 201.867 94.985C201.903 94.895 201.948 94.814 202.002 94.742C202.038 94.67 202.092 94.58 202.164 94.472C202.236 94.346 202.317 94.193 202.407 94.013L202.515 93.716C202.623 93.482 202.758 93.221 202.92 92.933C203.082 92.645 203.199 92.438 203.271 92.312C203.343 92.15 203.451 91.961 203.595 91.745C203.739 91.511 203.847 91.358 203.919 91.286L203.892 91.259C203.982 91.097 204.09 91.007 204.216 90.989C204.36 90.953 204.513 90.935 204.675 90.935C204.927 90.935 205.071 90.971 205.107 91.043C205.143 91.115 205.161 91.277 205.161 91.529C205.161 91.799 205.152 91.997 205.134 92.123C205.134 92.231 205.062 92.357 204.918 92.501H204.945C204.981 92.465 204.972 92.51 204.918 92.636C204.864 92.744 204.819 92.825 204.783 92.879C204.747 92.969 204.702 93.068 204.648 93.176C204.612 93.284 204.567 93.365 204.513 93.419C204.459 93.491 204.324 93.734 204.108 94.148C203.91 94.544 203.676 95.012 203.406 95.552C203.154 96.092 202.911 96.614 202.677 97.118C202.443 97.622 202.272 98.009 202.164 98.279L202.029 98.684C201.993 98.756 201.975 98.81 201.975 98.846C201.921 98.972 201.867 99.098 201.813 99.224C201.759 99.35 201.705 99.458 201.651 99.548L201.192 101.114L201.057 101.681L200.814 102.275L200.652 102.788C200.616 102.896 200.589 102.995 200.571 103.085C200.553 103.175 200.517 103.247 200.463 103.301C200.463 103.319 200.454 103.346 200.436 103.382C200.436 103.4 200.436 103.418 200.436 103.436C200.364 103.724 200.283 104.129 200.193 104.651C200.103 105.173 200.04 105.722 200.004 106.298C200.004 106.316 199.995 106.334 199.977 106.352C199.977 106.37 199.977 106.388 199.977 106.406C199.923 106.784 199.833 107.036 199.707 107.162C199.581 107.288 199.392 107.315 199.14 107.243ZM204.485 107C204.143 107.09 203.864 107.018 203.648 106.784C203.45 106.55 203.333 106.19 203.297 105.704C203.261 105.218 203.315 104.642 203.459 103.976C203.549 103.76 203.621 103.553 203.675 103.355C203.729 103.139 203.756 102.968 203.756 102.842C203.792 102.662 203.864 102.401 203.972 102.059C204.08 101.699 204.197 101.33 204.323 100.952C204.449 100.574 204.566 100.241 204.674 99.953C204.8 99.647 204.881 99.458 204.917 99.386C204.989 99.386 205.052 99.323 205.106 99.197C205.16 99.071 205.187 98.945 205.187 98.819C205.187 98.675 205.214 98.513 205.268 98.333C205.34 98.153 205.412 98.027 205.484 97.955C205.484 97.865 205.502 97.766 205.538 97.658C205.592 97.532 205.619 97.433 205.619 97.361C205.619 97.289 205.637 97.217 205.673 97.145C205.727 97.073 205.754 97.001 205.754 96.929C205.88 96.695 206.042 96.326 206.24 95.822C206.456 95.3 206.681 94.724 206.915 94.094C207.167 93.464 207.401 92.843 207.617 92.231C207.833 91.619 208.004 91.106 208.13 90.692C208.274 90.26 208.346 89.999 208.346 89.909C208.346 89.765 208.382 89.657 208.454 89.585C208.526 89.513 208.634 89.477 208.778 89.477C208.832 89.423 208.895 89.387 208.967 89.369C209.057 89.351 209.138 89.342 209.21 89.342C209.21 89.342 209.246 89.378 209.318 89.45C209.39 89.522 209.498 89.63 209.642 89.774C209.786 89.9 209.867 90.044 209.885 90.206C209.921 90.368 209.939 90.557 209.939 90.773C209.939 91.007 209.912 91.214 209.858 91.394C209.804 91.574 209.696 91.835 209.534 92.177C209.372 92.519 209.12 93.05 208.778 93.77C208.634 94.13 208.481 94.472 208.319 94.796C208.157 95.102 208.076 95.291 208.076 95.363C208.076 95.435 208.04 95.543 207.968 95.687C207.914 95.831 207.851 96.011 207.779 96.227C207.707 96.371 207.608 96.587 207.482 96.875C207.356 97.145 207.221 97.442 207.077 97.766C206.951 98.072 206.843 98.342 206.753 98.576C206.663 98.792 206.618 98.918 206.618 98.954C206.618 99.026 206.609 99.098 206.591 99.17C206.591 99.242 206.555 99.314 206.483 99.386C206.411 99.386 206.366 99.44 206.348 99.548C206.348 99.638 206.348 99.683 206.348 99.683C206.348 99.863 206.204 100.34 205.916 101.114C205.628 102.104 205.358 103.013 205.106 103.841C204.872 104.669 204.755 105.335 204.755 105.839C204.755 106.271 204.746 106.559 204.728 106.703C204.71 106.829 204.629 106.928 204.485 107ZM217.34 106.757C216.89 106.793 216.458 106.766 216.044 106.676C215.648 106.586 215.306 106.433 215.018 106.217C214.748 105.983 214.559 105.704 214.451 105.38C214.325 105.128 214.262 104.957 214.262 104.867C214.262 104.759 214.325 104.669 214.451 104.597C214.595 104.597 214.721 104.642 214.829 104.732C214.955 104.804 215.117 104.885 215.315 104.975C215.585 105.209 215.909 105.335 216.287 105.353C216.683 105.371 217.043 105.308 217.367 105.164C217.691 105.02 217.871 104.84 217.907 104.624C217.907 104.552 217.88 104.426 217.826 104.246C217.772 104.066 217.709 103.877 217.637 103.679C217.151 102.995 216.791 102.32 216.557 101.654C216.341 100.97 216.233 100.412 216.233 99.98C216.233 99.656 216.332 99.314 216.53 98.954C216.728 98.576 216.998 98.261 217.34 98.009C217.664 97.667 218.024 97.361 218.42 97.091C218.816 96.821 219.212 96.587 219.608 96.389C220.022 96.191 220.391 96.047 220.715 95.957C220.913 95.957 221.174 95.984 221.498 96.038C221.822 96.092 222.047 96.155 222.173 96.227C222.371 96.299 222.56 96.497 222.74 96.821C222.92 97.127 223.01 97.433 223.01 97.739C223.01 97.865 222.974 98.027 222.902 98.225C222.83 98.423 222.713 98.657 222.551 98.927C222.479 99.125 222.398 99.314 222.308 99.494C222.218 99.656 222.173 99.773 222.173 99.845C222.083 100.043 221.957 100.142 221.795 100.142C221.651 100.124 221.498 100.043 221.336 99.899C221.192 99.737 221.075 99.548 220.985 99.332C220.913 99.062 220.886 98.846 220.904 98.684C220.922 98.504 220.994 98.315 221.12 98.117C221.318 97.919 221.417 97.784 221.417 97.712C221.417 97.64 221.318 97.604 221.12 97.604C220.994 97.604 220.76 97.685 220.418 97.847C220.094 97.991 219.743 98.189 219.365 98.441C219.005 98.675 218.69 98.927 218.42 99.197C218.078 99.521 217.871 99.755 217.799 99.899C217.745 100.043 217.718 100.268 217.718 100.574C217.718 100.826 217.772 101.141 217.88 101.519C218.006 101.897 218.132 102.149 218.258 102.275C218.258 102.275 218.321 102.401 218.447 102.653C218.573 102.887 218.726 103.139 218.906 103.409C219.428 104.561 219.563 105.389 219.311 105.893C219.059 106.397 218.402 106.685 217.34 106.757ZM226.407 108.35C225.813 108.26 225.408 108.035 225.192 107.675C224.994 107.333 224.949 106.802 225.057 106.082C225.165 105.74 225.228 105.434 225.246 105.164C225.282 104.876 225.363 104.696 225.489 104.624C225.489 104.624 225.498 104.597 225.516 104.543C225.552 104.489 225.543 104.435 225.489 104.381C225.489 104.147 225.57 103.823 225.732 103.409C225.768 103.301 225.813 103.175 225.867 103.031C225.939 102.869 225.975 102.788 225.975 102.788C225.885 102.644 225.885 102.527 225.975 102.437C226.065 102.347 226.155 102.266 226.245 102.194C226.353 102.104 226.362 102.005 226.272 101.897C226.236 101.825 226.281 101.663 226.407 101.411C226.533 101.141 226.677 100.862 226.839 100.574C227.001 100.286 227.109 100.061 227.163 99.899C227.163 99.863 227.208 99.737 227.298 99.521C227.388 99.305 227.496 99.053 227.622 98.765C227.748 98.477 227.865 98.216 227.973 97.982C228.099 97.748 228.18 97.595 228.216 97.523C228.396 97.433 228.324 97.37 228 97.334C227.676 97.298 227.334 97.289 226.974 97.307C226.416 97.289 225.966 97.262 225.624 97.226C225.3 97.19 225.03 97.109 224.814 96.983C224.598 96.731 224.517 96.551 224.571 96.443C224.643 96.317 224.859 96.245 225.219 96.227C225.453 96.209 225.633 96.2 225.759 96.2C225.903 96.2 226.083 96.191 226.299 96.173C226.533 96.137 226.893 96.092 227.379 96.038L228.756 95.93L228.837 95.471C228.981 95.237 229.098 95.03 229.188 94.85C229.296 94.652 229.386 94.454 229.458 94.256C229.53 94.058 229.584 93.851 229.62 93.635C229.62 93.635 229.701 93.491 229.863 93.203C230.025 92.897 230.124 92.582 230.16 92.258C230.376 91.898 230.565 91.574 230.727 91.286C230.889 90.98 230.988 90.791 231.024 90.719C231.222 90.557 231.357 90.476 231.429 90.476C231.519 90.476 231.699 90.566 231.969 90.746C232.131 90.836 232.275 90.944 232.401 91.07C232.527 91.196 232.608 91.331 232.644 91.475C232.68 91.601 232.626 91.727 232.482 91.853C232.446 91.925 232.392 92.06 232.32 92.258C232.248 92.438 232.194 92.591 232.158 92.717C232.05 92.843 231.915 93.05 231.753 93.338C231.609 93.608 231.51 93.887 231.456 94.175C231.312 94.481 231.177 94.76 231.051 95.012C230.925 95.246 230.826 95.363 230.754 95.363C230.79 95.543 230.898 95.633 231.078 95.633C231.258 95.615 231.555 95.597 231.969 95.579C232.311 95.543 232.545 95.507 232.671 95.471C232.815 95.417 232.977 95.435 233.157 95.525C233.247 95.651 233.319 95.795 233.373 95.957C233.427 96.119 233.436 96.272 233.4 96.416C233.382 96.542 233.31 96.632 233.184 96.686C233.094 96.686 232.905 96.74 232.617 96.848C232.347 96.938 232.005 96.992 231.591 97.01L230.16 97.145L229.701 98.063C229.575 98.297 229.467 98.513 229.377 98.711C229.287 98.891 229.224 98.999 229.188 99.035C229.188 99.143 229.125 99.305 228.999 99.521C228.891 99.737 228.774 99.971 228.648 100.223C228.54 100.529 228.414 100.808 228.27 101.06C228.144 101.312 228.081 101.438 228.081 101.438C228.009 101.438 227.973 101.492 227.973 101.6C228.063 101.816 228.036 101.978 227.892 102.086C227.802 102.14 227.721 102.221 227.649 102.329C227.595 102.419 227.568 102.464 227.568 102.464C227.64 102.536 227.649 102.626 227.595 102.734C227.559 102.842 227.505 102.959 227.433 103.085C227.433 103.229 227.388 103.436 227.298 103.706C227.226 103.976 227.145 104.228 227.055 104.462C227.073 104.786 227.091 104.993 227.109 105.083C227.127 105.173 227.172 105.209 227.244 105.191C227.334 105.209 227.415 105.209 227.487 105.191C227.559 105.173 227.631 105.164 227.703 105.164C227.955 105.056 227.82 105.686 227.298 107.054C227.01 107.504 226.812 107.828 226.704 108.026C226.596 108.242 226.497 108.35 226.407 108.35ZM233.105 106.028C233.033 105.884 232.943 105.776 232.835 105.704C232.727 105.614 232.673 105.533 232.673 105.461C232.673 105.389 232.664 105.317 232.646 105.245C232.646 105.155 232.61 105.074 232.538 105.002C232.448 104.894 232.457 104.651 232.565 104.273C232.673 103.877 232.853 103.4 233.105 102.842C233.357 102.266 233.654 101.663 233.996 101.033C234.14 100.889 234.284 100.7 234.428 100.466C234.572 100.232 234.68 100.079 234.752 100.007C234.752 99.935 234.779 99.872 234.833 99.818C234.887 99.746 234.95 99.71 235.022 99.71V99.548C235.022 99.458 235.103 99.305 235.265 99.089C235.445 98.873 235.661 98.639 235.913 98.387C236.165 98.117 236.426 97.865 236.696 97.631C236.966 97.379 237.191 97.199 237.371 97.091C237.749 96.839 238.136 96.686 238.532 96.632C238.946 96.578 239.297 96.668 239.585 96.902C239.639 96.956 239.729 97.046 239.855 97.172C239.981 97.298 240.125 97.442 240.287 97.604C240.467 97.748 240.647 97.901 240.827 98.063L241.826 98.954L241.34 100.304C241.106 101.024 241.043 101.654 241.151 102.194C241.277 102.734 241.457 103.202 241.691 103.598C241.781 103.796 241.961 103.985 242.231 104.165C242.519 104.345 242.789 104.453 243.041 104.489C243.185 104.507 243.32 104.561 243.446 104.651C243.572 104.741 243.635 104.885 243.635 105.083C243.635 105.263 243.599 105.407 243.527 105.515C243.455 105.623 243.329 105.695 243.149 105.731C242.555 105.803 241.997 105.659 241.475 105.299C240.971 104.939 240.503 104.345 240.071 103.517C239.999 103.409 239.9 103.211 239.774 102.923C239.666 102.617 239.603 102.419 239.585 102.329C239.513 102.419 239.378 102.59 239.18 102.842C238.982 103.076 238.829 103.247 238.721 103.355C237.443 104.651 236.336 105.524 235.4 105.974C234.482 106.406 233.717 106.424 233.105 106.028ZM234.077 104.516C234.077 104.642 234.266 104.642 234.644 104.516C235.04 104.372 235.463 104.12 235.913 103.76C236.525 103.238 237.137 102.662 237.749 102.032C238.379 101.402 238.883 100.817 239.261 100.277L239.855 99.305C239.675 98.891 239.477 98.612 239.261 98.468C239.063 98.306 238.892 98.225 238.748 98.225C238.514 98.225 238.163 98.441 237.695 98.873C237.245 99.305 236.759 99.881 236.237 100.601C235.715 101.321 235.22 102.113 234.752 102.977C234.572 103.337 234.41 103.688 234.266 104.03C234.14 104.354 234.077 104.516 234.077 104.516ZM247.645 106.703C247.123 106.793 246.646 106.766 246.214 106.622C245.782 106.46 245.431 106.199 245.161 105.839C244.909 105.461 244.783 104.984 244.783 104.408C244.729 103.868 244.792 103.247 244.972 102.545C245.152 101.825 245.413 101.105 245.755 100.385C246.115 99.665 246.502 99.044 246.916 98.522C247.276 98.09 247.636 97.694 247.996 97.334C248.356 96.974 248.68 96.731 248.968 96.605C249.22 96.497 249.454 96.434 249.67 96.416C249.904 96.38 250.093 96.362 250.237 96.362C250.525 96.434 250.831 96.569 251.155 96.767C251.497 96.947 251.668 97.145 251.668 97.361C251.668 97.361 251.686 97.388 251.722 97.442C251.776 97.478 251.803 97.496 251.803 97.496C251.911 97.496 252.001 97.613 252.073 97.847C252.163 98.081 252.217 98.351 252.235 98.657C252.253 98.945 252.208 99.188 252.1 99.386C252.028 99.728 251.902 100.025 251.722 100.277C251.542 100.529 251.38 100.655 251.236 100.655C251.164 100.655 251.092 100.664 251.02 100.682C250.966 100.682 250.939 100.727 250.939 100.817C250.939 100.907 250.885 100.943 250.777 100.925C250.687 100.907 250.588 100.853 250.48 100.763C250.372 100.655 250.291 100.529 250.237 100.385C250.237 100.295 250.273 100.142 250.345 99.926C250.417 99.71 250.489 99.431 250.561 99.089C250.669 98.585 250.66 98.261 250.534 98.117C250.408 97.955 250.165 97.946 249.805 98.09C249.355 98.342 248.923 98.693 248.509 99.143C248.113 99.593 247.744 100.178 247.402 100.898C247.06 101.6 246.754 102.482 246.484 103.544C246.376 103.958 246.331 104.318 246.349 104.624C246.385 104.93 246.43 105.092 246.484 105.11C246.736 105.182 247.078 105.2 247.51 105.164C247.942 105.11 248.257 105.029 248.455 104.921C248.743 104.777 249.067 104.588 249.427 104.354C249.787 104.102 250.102 103.877 250.372 103.679C250.462 103.625 250.57 103.535 250.696 103.409C250.822 103.283 250.957 103.184 251.101 103.112C251.245 102.896 251.371 102.77 251.479 102.734C251.587 102.698 251.749 102.68 251.965 102.68C252.109 102.716 252.244 102.77 252.37 102.842C252.496 102.914 252.577 102.986 252.613 103.058C252.667 103.13 252.64 103.193 252.532 103.247C252.46 103.247 252.415 103.274 252.397 103.328C252.397 103.364 252.397 103.382 252.397 103.382C252.433 103.454 252.352 103.607 252.154 103.841C251.974 104.057 251.74 104.3 251.452 104.57C251.164 104.84 250.885 105.074 250.615 105.272C250.363 105.452 250.183 105.542 250.075 105.542C249.895 105.542 249.805 105.596 249.805 105.704C249.805 105.74 249.67 105.83 249.4 105.974C249.148 106.118 248.851 106.262 248.509 106.406C248.185 106.55 247.897 106.649 247.645 106.703ZM254.489 106.406C254.309 106.28 254.174 106.163 254.084 106.055C253.994 105.947 253.958 105.794 253.976 105.596C254.012 105.326 254.066 105.047 254.138 104.759C254.21 104.453 254.3 104.156 254.408 103.868C254.462 103.544 254.525 103.22 254.597 102.896C254.687 102.572 254.831 102.266 255.029 101.978C255.263 101.312 255.506 100.655 255.758 100.007C256.01 99.341 256.226 98.648 256.406 97.928C256.676 97.28 256.919 96.704 257.135 96.2C257.369 95.696 257.648 95.048 257.972 94.256C258.152 93.842 258.305 93.383 258.431 92.879C258.575 92.357 258.791 91.898 259.079 91.502C259.205 91.34 259.295 91.205 259.349 91.097C259.421 90.971 259.493 90.854 259.565 90.746C259.601 90.638 259.718 90.602 259.916 90.638C260.132 90.674 260.285 90.755 260.375 90.881C260.465 90.863 260.573 90.98 260.699 91.232C260.825 91.484 260.87 91.682 260.834 91.826C260.834 92.024 260.762 92.24 260.618 92.474C260.546 92.546 260.474 92.654 260.402 92.798C260.33 92.924 260.222 93.095 260.078 93.311C260.006 93.545 259.934 93.779 259.862 94.013C259.79 94.247 259.709 94.463 259.619 94.661C259.529 94.859 259.43 95.057 259.322 95.255C259.214 95.453 259.142 95.615 259.106 95.741C258.944 96.155 258.764 96.56 258.566 96.956C258.386 97.334 258.224 97.739 258.08 98.171C257.936 98.585 257.783 99.026 257.621 99.494C257.477 99.944 257.279 100.376 257.027 100.79C256.901 100.97 256.802 101.213 256.73 101.519C256.658 101.825 256.586 102.122 256.514 102.41C256.388 102.734 256.271 103.031 256.163 103.301C256.073 103.571 256.028 103.742 256.028 103.814C255.902 104.21 255.803 104.606 255.731 105.002C255.659 105.38 255.542 105.713 255.38 106.001C255.362 106.271 255.281 106.451 255.137 106.541C255.011 106.631 254.795 106.586 254.489 106.406ZM260.942 106.838C260.654 106.802 260.438 106.748 260.294 106.676C260.15 106.586 259.88 106.397 259.484 106.109C259.268 105.893 258.971 105.56 258.593 105.11C258.215 104.66 257.837 104.183 257.459 103.679C257.081 103.157 256.766 102.716 256.514 102.356L257.621 100.871C257.855 101.159 258.044 101.429 258.188 101.681C258.332 101.933 258.449 102.104 258.539 102.194C258.953 102.806 259.277 103.301 259.511 103.679C259.763 104.057 259.988 104.363 260.186 104.597C260.384 104.831 260.591 105.038 260.807 105.218C261.041 105.398 261.329 105.587 261.671 105.785C261.725 105.821 261.779 105.875 261.833 105.947C261.887 106.019 261.905 106.127 261.887 106.271C261.815 106.469 261.734 106.595 261.644 106.649C261.572 106.685 261.338 106.748 260.942 106.838ZM256.433 102.059C256.325 101.753 256.361 101.447 256.541 101.141C256.739 100.817 256.955 100.592 257.189 100.466C257.261 100.34 257.333 100.259 257.405 100.223C257.495 100.169 257.549 100.106 257.567 100.034C257.603 99.962 257.693 99.863 257.837 99.737C257.999 99.611 258.143 99.494 258.269 99.386C258.557 99.206 258.881 98.99 259.241 98.738C259.619 98.468 259.979 98.198 260.321 97.928C260.663 97.658 260.951 97.424 261.185 97.226C261.437 97.028 261.59 96.902 261.644 96.848C261.698 96.776 261.77 96.731 261.86 96.713C261.968 96.677 262.103 96.695 262.265 96.767C262.481 96.821 262.625 96.911 262.697 97.037C262.769 97.145 262.805 97.361 262.805 97.685C262.859 97.883 262.778 98.099 262.562 98.333C262.364 98.549 262.058 98.792 261.644 99.062C261.5 99.152 261.302 99.287 261.05 99.467C260.816 99.647 260.609 99.818 260.429 99.98C260.303 100.052 260.114 100.178 259.862 100.358C259.628 100.52 259.421 100.682 259.241 100.844C259.097 100.934 258.908 101.096 258.674 101.33C258.44 101.546 258.206 101.708 257.972 101.816C257.396 102.356 257.018 102.644 256.838 102.68C256.658 102.716 256.523 102.509 256.433 102.059ZM276.721 106.919C276.523 106.991 276.379 107.018 276.289 107C276.217 106.964 276.028 106.829 275.722 106.595C275.596 106.379 275.515 106.19 275.479 106.028C275.461 105.848 275.452 105.533 275.452 105.083C275.488 104.813 275.56 104.426 275.668 103.922C275.794 103.418 275.938 102.887 276.1 102.329C276.262 101.771 276.406 101.267 276.532 100.817C276.676 100.367 276.784 100.061 276.856 99.899C276.982 99.467 277.009 99.206 276.937 99.116C276.865 99.008 276.649 98.936 276.289 98.9C275.569 98.81 274.921 99.044 274.345 99.602C273.769 100.16 273.193 100.889 272.617 101.789C272.185 102.455 271.924 103.031 271.834 103.517C271.762 103.985 271.753 104.309 271.807 104.489C271.861 104.633 271.987 104.714 272.185 104.732C272.383 104.732 272.599 104.687 272.833 104.597C273.085 104.507 273.301 104.417 273.481 104.327C273.607 104.255 273.76 104.183 273.94 104.111C274.138 104.021 274.327 103.94 274.507 103.868C274.615 103.868 274.687 103.904 274.723 103.976C274.777 104.03 274.804 104.147 274.804 104.327C274.804 104.399 274.831 104.462 274.885 104.516C274.939 104.57 275.002 104.615 275.074 104.651C275.146 104.723 275.038 104.885 274.75 105.137C274.48 105.389 274.057 105.677 273.481 106.001C272.941 106.127 272.5 106.19 272.158 106.19C271.834 106.19 271.519 106.073 271.213 105.839C270.709 105.533 270.421 105.038 270.349 104.354C270.295 103.652 270.439 102.797 270.781 101.789C271.123 100.979 271.501 100.322 271.915 99.818C272.329 99.296 272.77 98.792 273.238 98.306C273.31 98.234 273.472 98.126 273.724 97.982C273.994 97.82 274.327 97.676 274.723 97.55C275.173 97.406 275.596 97.316 275.992 97.28C276.388 97.244 276.73 97.325 277.018 97.523C277.342 97.595 277.549 97.586 277.639 97.496C277.729 97.388 277.882 97.064 278.098 96.524C278.458 95.624 278.809 94.715 279.151 93.797C279.493 92.861 279.862 91.916 280.258 90.962C280.438 90.62 280.546 90.359 280.582 90.179C280.636 89.981 280.699 89.846 280.771 89.774H281.284C281.356 89.774 281.482 89.837 281.662 89.963C281.842 90.089 281.968 90.26 282.04 90.476C282.04 90.638 281.968 90.998 281.824 91.556C281.68 92.096 281.446 92.744 281.122 93.5C280.834 94.166 280.546 94.841 280.258 95.525C279.988 96.191 279.727 96.902 279.475 97.658C279.277 98.216 279.097 98.666 278.935 99.008C278.773 99.35 278.665 99.647 278.611 99.899C278.503 100.367 278.368 100.79 278.206 101.168C278.062 101.528 277.963 101.78 277.909 101.924C277.675 102.608 277.486 103.166 277.342 103.598C277.198 104.012 277.09 104.363 277.018 104.651C276.946 104.921 276.901 105.2 276.883 105.488C276.883 105.758 276.91 106.082 276.964 106.46C276.964 106.532 276.955 106.604 276.937 106.676C276.919 106.748 276.847 106.829 276.721 106.919ZM283.892 107.081C283.1 107.081 282.452 106.784 281.948 106.19C281.444 105.578 281.201 104.822 281.219 103.922C281.255 103.274 281.381 102.581 281.597 101.843C281.831 101.087 282.137 100.367 282.515 99.683C282.893 98.981 283.307 98.369 283.757 97.847C284.207 97.325 284.675 96.956 285.161 96.74C285.341 96.65 285.53 96.578 285.728 96.524C285.944 96.47 286.16 96.443 286.376 96.443C286.574 96.443 286.781 96.479 286.997 96.551C287.213 96.605 287.393 96.668 287.537 96.74C287.843 96.866 288.077 97.019 288.239 97.199C288.401 97.379 288.545 97.658 288.671 98.036C288.725 98.378 288.752 98.621 288.752 98.765C288.752 98.909 288.707 99.125 288.617 99.413C288.401 100.061 288.122 100.619 287.78 101.087C287.438 101.555 286.979 101.951 286.403 102.275C286.259 102.365 286.088 102.437 285.89 102.491C285.71 102.527 285.521 102.545 285.323 102.545C284.963 102.545 284.612 102.482 284.27 102.356C283.946 102.212 283.685 102.005 283.487 101.735L283.298 101.519L283.217 101.735C283.037 102.221 282.893 102.671 282.785 103.085C282.695 103.499 282.65 103.877 282.65 104.219C282.65 104.435 282.668 104.642 282.704 104.84C282.758 105.038 282.83 105.209 282.92 105.353C282.992 105.461 283.109 105.542 283.271 105.596C283.451 105.632 283.64 105.65 283.838 105.65C283.964 105.65 284.09 105.65 284.216 105.65C284.36 105.632 284.495 105.596 284.621 105.542C284.927 105.434 285.17 105.317 285.35 105.191C285.548 105.065 285.746 104.93 285.944 104.786L286.052 104.732H286.025C286.241 104.624 286.43 104.516 286.592 104.408C286.772 104.3 286.862 104.246 286.862 104.246C286.934 104.246 287.006 104.201 287.078 104.111C287.222 104.039 287.402 104.066 287.618 104.192C287.852 104.318 287.969 104.48 287.969 104.678C287.951 104.768 287.87 104.912 287.726 105.11C287.582 105.29 287.42 105.461 287.24 105.623C287.078 105.785 286.943 105.875 286.835 105.893C286.817 105.911 286.754 105.947 286.646 106.001C286.538 106.037 286.466 106.073 286.43 106.109H286.457C286.295 106.325 286.133 106.433 285.971 106.433H285.755C285.683 106.559 285.449 106.703 285.053 106.865C284.657 107.009 284.27 107.081 283.892 107.081ZM285.107 101.141C285.431 101.141 285.71 101.051 285.944 100.871C286.196 100.673 286.412 100.457 286.592 100.223C286.952 99.737 287.159 99.269 287.213 98.819C287.285 98.351 287.231 98.027 287.051 97.847C286.943 97.793 286.844 97.766 286.754 97.766C286.682 97.748 286.529 97.775 286.295 97.847C286.133 97.883 285.908 98.018 285.62 98.252C285.332 98.486 285.044 98.747 284.756 99.035C284.486 99.323 284.279 99.566 284.135 99.764L283.784 100.331C283.928 100.277 284.063 100.25 284.189 100.25C284.333 100.232 284.414 100.241 284.432 100.277C284.432 100.439 284.459 100.592 284.513 100.736C284.585 100.862 284.666 100.961 284.756 101.033C284.864 101.105 284.981 101.141 285.107 101.141ZM292.321 105.353C292.195 105.245 292.033 104.921 291.835 104.381C291.655 103.841 291.475 103.211 291.295 102.491C291.133 101.753 290.998 101.078 290.89 100.466C290.818 100.106 290.737 99.8 290.647 99.548C290.575 99.296 290.512 99.089 290.458 98.927C290.368 98.603 290.341 98.333 290.377 98.117C290.413 97.901 290.539 97.73 290.755 97.604C290.845 97.55 290.953 97.514 291.079 97.496C291.223 97.46 291.331 97.451 291.403 97.469C291.619 97.541 291.817 97.874 291.997 98.468C292.177 99.044 292.339 99.809 292.483 100.763C292.555 101.321 292.645 101.798 292.753 102.194C292.861 102.59 292.915 102.824 292.915 102.896C292.987 103.04 293.068 103.184 293.158 103.328C293.266 103.454 293.392 103.445 293.536 103.301C293.608 103.229 293.752 103.067 293.968 102.815C294.202 102.563 294.427 102.293 294.643 102.005C295.021 101.501 295.318 101.087 295.534 100.763C295.768 100.439 296.029 100.097 296.317 99.737C296.443 99.557 296.587 99.359 296.749 99.143C296.911 98.927 297.073 98.729 297.235 98.549C297.415 98.351 297.577 98.234 297.721 98.198C298.153 98.126 298.387 98.216 298.423 98.468C298.459 98.72 298.297 99.098 297.937 99.602C297.793 99.818 297.676 100.025 297.586 100.223C297.514 100.403 297.442 100.529 297.37 100.601C297.226 100.889 297.001 101.258 296.695 101.708C296.389 102.14 296.092 102.545 295.804 102.923C295.516 103.283 295.318 103.517 295.21 103.625C295.138 103.697 294.976 103.832 294.724 104.03C294.49 104.228 294.265 104.48 294.049 104.786C293.617 105.2 293.275 105.452 293.023 105.542C292.771 105.632 292.537 105.569 292.321 105.353ZM300.908 106.352C300.206 106.064 299.747 105.668 299.531 105.164C299.333 104.642 299.297 103.841 299.423 102.761C299.459 102.203 299.477 101.834 299.477 101.654C299.477 101.474 299.378 101.294 299.18 101.114C299.126 101.042 299.027 100.943 298.883 100.817C298.757 100.691 298.703 100.583 298.721 100.493C298.703 100.367 298.712 100.232 298.748 100.088C298.784 99.926 298.838 99.845 298.91 99.845C298.982 99.845 299.054 99.827 299.126 99.791C299.216 99.755 299.297 99.755 299.369 99.791C299.441 99.791 299.522 99.8 299.612 99.818C299.702 99.836 299.747 99.881 299.747 99.953C299.819 100.079 299.936 100.097 300.098 100.007C300.26 99.899 300.431 99.665 300.611 99.305C300.791 99.017 301.025 98.729 301.313 98.441C301.619 98.153 301.916 97.892 302.204 97.658C302.51 97.406 302.762 97.226 302.96 97.118C303.05 97.082 303.185 97.037 303.365 96.983C303.545 96.929 303.734 96.884 303.932 96.848C304.148 96.812 304.328 96.803 304.472 96.821C304.796 96.839 305.066 96.929 305.282 97.091C305.516 97.253 305.732 97.442 305.93 97.658C306.164 97.82 306.308 98.036 306.362 98.306C306.434 98.576 306.452 98.864 306.416 99.17C306.38 99.476 306.299 99.755 306.173 100.007C306.119 100.187 305.966 100.403 305.714 100.655C305.462 100.907 305.174 101.15 304.85 101.384C304.526 101.618 304.229 101.789 303.959 101.897C303.725 101.951 303.419 101.996 303.041 102.032C302.681 102.068 302.339 102.086 302.015 102.086C301.709 102.068 301.502 102.032 301.394 101.978C301.268 101.906 301.169 102.005 301.097 102.275C301.025 102.545 300.971 102.932 300.935 103.436C300.899 103.832 300.899 104.12 300.935 104.3C300.971 104.48 301.007 104.606 301.043 104.678C301.169 104.804 301.34 104.966 301.556 105.164C301.79 105.344 302.114 105.371 302.528 105.245C302.87 105.155 303.203 104.921 303.527 104.543C303.869 104.165 304.184 103.859 304.472 103.625C304.544 103.499 304.661 103.427 304.823 103.409C305.003 103.373 305.192 103.382 305.39 103.436C305.588 103.562 305.669 103.715 305.633 103.895C305.615 104.057 305.525 104.309 305.363 104.651C305.309 104.777 305.183 104.939 304.985 105.137C304.805 105.317 304.598 105.506 304.364 105.704C304.148 105.884 303.95 106.028 303.77 106.136C303.23 106.424 302.726 106.577 302.258 106.595C301.79 106.595 301.34 106.514 300.908 106.352ZM302.501 100.871C302.897 100.781 303.212 100.718 303.446 100.682C303.68 100.646 303.905 100.547 304.121 100.385C304.337 100.205 304.607 99.872 304.931 99.386C305.003 99.188 305.021 98.99 304.985 98.792C304.967 98.594 304.922 98.459 304.85 98.387C304.688 98.207 304.49 98.153 304.256 98.225C304.04 98.279 303.833 98.378 303.635 98.522C303.509 98.576 303.32 98.711 303.068 98.927C302.834 99.125 302.6 99.359 302.366 99.629C302.132 99.881 301.943 100.115 301.799 100.331C301.655 100.547 301.619 100.673 301.691 100.709C301.655 100.781 301.754 100.826 301.988 100.844C302.24 100.862 302.411 100.871 302.501 100.871ZM308.231 105.731C308.051 105.623 307.916 105.515 307.826 105.407C307.736 105.299 307.691 105.146 307.691 104.948C307.691 104.678 307.727 104.399 307.799 104.111C307.871 103.805 307.943 103.508 308.015 103.22C308.051 102.896 308.096 102.572 308.15 102.248C308.222 101.906 308.348 101.591 308.528 101.303C308.726 100.619 308.933 99.944 309.149 99.278C309.365 98.594 309.554 97.892 309.716 97.172C309.95 96.506 310.157 95.921 310.337 95.417C310.535 94.895 310.778 94.238 311.066 93.446C311.228 92.996 311.363 92.519 311.471 92.015C311.597 91.493 311.786 91.025 312.038 90.611C312.146 90.449 312.227 90.314 312.281 90.206C312.353 90.08 312.425 89.963 312.497 89.855C312.515 89.783 312.569 89.738 312.659 89.72C312.767 89.702 312.884 89.711 313.01 89.747C313.136 89.783 313.235 89.846 313.307 89.936C313.361 89.918 313.424 89.972 313.496 90.098C313.586 90.206 313.667 90.332 313.739 90.476C313.811 90.62 313.838 90.746 313.82 90.854C313.82 90.926 313.802 91.025 313.766 91.151C313.748 91.277 313.703 91.394 313.631 91.502C313.559 91.574 313.487 91.682 313.415 91.826C313.361 91.952 313.271 92.132 313.145 92.366C313.073 92.6 313.01 92.843 312.956 93.095C312.902 93.329 312.83 93.545 312.74 93.743C312.668 93.959 312.578 94.166 312.47 94.364C312.38 94.562 312.317 94.724 312.281 94.85C312.155 95.264 312.002 95.669 311.822 96.065C311.66 96.461 311.516 96.884 311.39 97.334C311.264 97.766 311.138 98.216 311.012 98.684C310.886 99.134 310.706 99.566 310.472 99.98C310.346 100.178 310.256 100.43 310.202 100.736C310.148 101.042 310.094 101.348 310.04 101.654C309.932 101.978 309.833 102.284 309.743 102.572C309.671 102.842 309.635 103.013 309.635 103.085C309.527 103.481 309.446 103.877 309.392 104.273C309.356 104.651 309.266 104.984 309.122 105.272C309.104 105.452 309.068 105.596 309.014 105.704C308.96 105.812 308.87 105.875 308.744 105.893C308.618 105.893 308.447 105.839 308.231 105.731ZM314.223 106.595C313.989 106.595 313.8 106.55 313.656 106.46C313.53 106.37 313.368 106.244 313.17 106.082C312.828 105.722 312.585 105.38 312.441 105.056C312.297 104.714 312.252 104.39 312.306 104.084C312.36 103.94 312.378 103.805 312.36 103.679C312.36 103.535 312.36 103.463 312.36 103.463C312.27 103.373 312.243 103.319 312.279 103.301C312.315 103.265 312.351 103.211 312.387 103.139C312.495 103.139 312.531 103.04 312.495 102.842C312.459 102.698 312.531 102.383 312.711 101.897C312.891 101.411 313.116 100.952 313.386 100.52C313.494 100.34 313.656 100.106 313.872 99.818C314.088 99.512 314.322 99.215 314.574 98.927C314.844 98.621 315.087 98.378 315.303 98.198C315.753 97.82 316.149 97.541 316.491 97.361C316.833 97.181 317.202 97.046 317.598 96.956C317.994 96.866 318.264 96.821 318.408 96.821C318.57 96.821 318.786 96.965 319.056 97.253C319.47 97.433 319.767 97.649 319.947 97.901C320.145 98.153 320.271 98.522 320.325 99.008C320.379 99.548 320.334 100.169 320.19 100.871C320.064 101.555 319.641 102.41 318.921 103.436C318.471 104.084 318.057 104.57 317.679 104.894C317.301 105.2 316.851 105.506 316.329 105.812C315.951 106.064 315.609 106.253 315.303 106.379C314.997 106.487 314.637 106.559 314.223 106.595ZM316.815 103.733C317.247 103.247 317.589 102.788 317.841 102.356C318.111 101.924 318.363 101.375 318.597 100.709C318.669 100.511 318.714 100.268 318.732 99.98C318.75 99.674 318.741 99.395 318.705 99.143C318.687 98.873 318.624 98.72 318.516 98.684C318.3 98.558 318.039 98.522 317.733 98.576C317.427 98.612 317.094 98.783 316.734 99.089C316.176 99.557 315.69 100.142 315.276 100.844C314.862 101.528 314.457 102.311 314.061 103.193C313.791 103.841 313.728 104.363 313.872 104.759C314.034 105.137 314.367 105.272 314.871 105.164C315.393 105.038 316.041 104.561 316.815 103.733ZM320.691 113.021C320.565 112.967 320.43 112.877 320.286 112.751C320.142 112.625 320.025 112.481 319.935 112.319C319.845 112.175 319.8 112.049 319.8 111.941C319.8 111.833 319.845 111.545 319.935 111.077C320.025 110.627 320.142 110.069 320.286 109.403C320.448 108.755 320.619 108.089 320.799 107.405C320.997 106.739 321.195 106.145 321.393 105.623C321.429 105.533 321.546 105.236 321.744 104.732C321.96 104.21 322.167 103.58 322.365 102.842C322.509 102.374 322.698 101.843 322.932 101.249C323.166 100.655 323.409 100.061 323.661 99.467C323.913 98.855 324.12 98.315 324.282 97.847C324.444 97.379 324.579 97.001 324.687 96.713C324.813 96.407 324.885 96.218 324.903 96.146C324.939 96.038 324.993 95.948 325.065 95.876C325.155 95.786 325.245 95.714 325.335 95.66C325.425 95.588 325.497 95.543 325.551 95.525C325.875 95.435 326.154 95.57 326.388 95.93C326.478 96.092 326.496 96.281 326.442 96.497C326.388 96.713 326.289 96.983 326.145 97.307L325.956 97.847L326.928 97.631C327.09 97.631 327.288 97.64 327.522 97.658C327.774 97.658 328.017 97.658 328.251 97.658C328.485 97.658 328.656 97.676 328.764 97.712C329.196 97.73 329.493 97.811 329.655 97.955C329.835 98.099 329.988 98.288 330.114 98.522C330.204 98.612 330.312 98.738 330.438 98.9C330.564 99.044 330.636 99.188 330.654 99.332C330.726 99.638 330.726 99.971 330.654 100.331C330.6 100.673 330.492 101.015 330.33 101.357C330.186 101.699 329.988 102.014 329.736 102.302C329.502 102.572 329.25 102.797 328.98 102.977C328.8 103.049 328.638 103.13 328.494 103.22C328.35 103.292 328.278 103.328 328.278 103.328C328.26 103.418 328.062 103.562 327.684 103.76C327.306 103.94 326.874 104.111 326.388 104.273C325.902 104.435 325.479 104.543 325.119 104.597C324.993 104.615 324.813 104.633 324.579 104.651C324.345 104.669 324.165 104.642 324.039 104.57C323.841 104.534 323.706 104.516 323.634 104.516C323.562 104.516 323.526 104.552 323.526 104.624C323.508 104.66 323.382 105.038 323.148 105.758C322.914 106.478 322.671 107.315 322.419 108.269C322.077 109.313 321.798 110.141 321.582 110.753C321.366 111.383 321.195 111.851 321.069 112.157C320.961 112.463 320.88 112.67 320.826 112.778C320.772 112.904 320.727 112.985 320.691 113.021ZM324.066 103.058C324.12 103.166 324.291 103.202 324.579 103.166C324.885 103.112 325.245 103.004 325.659 102.842C326.091 102.662 326.514 102.464 326.928 102.248C327.342 102.014 327.684 101.78 327.954 101.546C328.35 101.096 328.674 100.682 328.926 100.304C329.178 99.908 329.214 99.647 329.034 99.521C328.836 99.233 328.467 99.098 327.927 99.116C327.387 99.134 326.721 99.359 325.929 99.791C325.623 99.899 325.389 100.043 325.227 100.223C325.083 100.385 324.957 100.592 324.849 100.844C324.741 101.096 324.606 101.402 324.444 101.762C324.282 102.158 324.174 102.455 324.12 102.653C324.066 102.851 324.048 102.986 324.066 103.058ZM334.675 107.081C333.883 107.081 333.235 106.784 332.731 106.19C332.227 105.578 331.984 104.822 332.002 103.922C332.038 103.274 332.164 102.581 332.38 101.843C332.614 101.087 332.92 100.367 333.298 99.683C333.676 98.981 334.09 98.369 334.54 97.847C334.99 97.325 335.458 96.956 335.944 96.74C336.124 96.65 336.313 96.578 336.511 96.524C336.727 96.47 336.943 96.443 337.159 96.443C337.357 96.443 337.564 96.479 337.78 96.551C337.996 96.605 338.176 96.668 338.32 96.74C338.626 96.866 338.86 97.019 339.022 97.199C339.184 97.379 339.328 97.658 339.454 98.036C339.508 98.378 339.535 98.621 339.535 98.765C339.535 98.909 339.49 99.125 339.4 99.413C339.184 100.061 338.905 100.619 338.563 101.087C338.221 101.555 337.762 101.951 337.186 102.275C337.042 102.365 336.871 102.437 336.673 102.491C336.493 102.527 336.304 102.545 336.106 102.545C335.746 102.545 335.395 102.482 335.053 102.356C334.729 102.212 334.468 102.005 334.27 101.735L334.081 101.519L334 101.735C333.82 102.221 333.676 102.671 333.568 103.085C333.478 103.499 333.433 103.877 333.433 104.219C333.433 104.435 333.451 104.642 333.487 104.84C333.541 105.038 333.613 105.209 333.703 105.353C333.775 105.461 333.892 105.542 334.054 105.596C334.234 105.632 334.423 105.65 334.621 105.65C334.747 105.65 334.873 105.65 334.999 105.65C335.143 105.632 335.278 105.596 335.404 105.542C335.71 105.434 335.953 105.317 336.133 105.191C336.331 105.065 336.529 104.93 336.727 104.786L336.835 104.732H336.808C337.024 104.624 337.213 104.516 337.375 104.408C337.555 104.3 337.645 104.246 337.645 104.246C337.717 104.246 337.789 104.201 337.861 104.111C338.005 104.039 338.185 104.066 338.401 104.192C338.635 104.318 338.752 104.48 338.752 104.678C338.734 104.768 338.653 104.912 338.509 105.11C338.365 105.29 338.203 105.461 338.023 105.623C337.861 105.785 337.726 105.875 337.618 105.893C337.6 105.911 337.537 105.947 337.429 106.001C337.321 106.037 337.249 106.073 337.213 106.109H337.24C337.078 106.325 336.916 106.433 336.754 106.433H336.538C336.466 106.559 336.232 106.703 335.836 106.865C335.44 107.009 335.053 107.081 334.675 107.081ZM335.89 101.141C336.214 101.141 336.493 101.051 336.727 100.871C336.979 100.673 337.195 100.457 337.375 100.223C337.735 99.737 337.942 99.269 337.996 98.819C338.068 98.351 338.014 98.027 337.834 97.847C337.726 97.793 337.627 97.766 337.537 97.766C337.465 97.748 337.312 97.775 337.078 97.847C336.916 97.883 336.691 98.018 336.403 98.252C336.115 98.486 335.827 98.747 335.539 99.035C335.269 99.323 335.062 99.566 334.918 99.764L334.567 100.331C334.711 100.277 334.846 100.25 334.972 100.25C335.116 100.232 335.197 100.241 335.215 100.277C335.215 100.439 335.242 100.592 335.296 100.736C335.368 100.862 335.449 100.961 335.539 101.033C335.647 101.105 335.764 101.141 335.89 101.141ZM341.376 106.055C341.214 105.929 341.097 105.803 341.025 105.677C340.971 105.551 340.971 105.308 341.025 104.948C341.079 104.444 341.151 104.003 341.241 103.625C341.331 103.229 341.439 102.779 341.565 102.275C341.601 102.059 341.7 101.69 341.862 101.168C342.042 100.646 342.258 100.079 342.51 99.467C342.762 98.855 343.014 98.279 343.266 97.739C343.518 97.181 343.734 96.767 343.914 96.497C344.058 96.389 344.229 96.344 344.427 96.362C344.643 96.38 344.823 96.461 344.967 96.605C345.165 96.767 345.192 97.055 345.048 97.469C344.922 97.865 344.652 98.495 344.238 99.359C344.022 99.845 343.86 100.214 343.752 100.466C343.644 100.7 343.599 100.844 343.617 100.898C343.635 100.934 343.716 100.907 343.86 100.817C343.968 100.619 344.166 100.394 344.454 100.142C344.742 99.872 345.048 99.611 345.372 99.359C345.696 99.107 346.002 98.882 346.29 98.684C346.578 98.486 346.776 98.36 346.884 98.306C347.028 98.216 347.19 98.144 347.37 98.09C347.568 98.018 347.703 97.964 347.775 97.928C348.189 97.73 348.612 97.658 349.044 97.712C349.476 97.766 349.746 97.928 349.854 98.198C349.872 98.342 349.926 98.45 350.016 98.522C350.124 98.594 350.178 98.63 350.178 98.63C350.25 98.63 350.286 98.657 350.286 98.711C350.304 98.765 350.313 98.792 350.313 98.792C350.313 98.918 350.214 98.999 350.016 99.035C349.836 99.053 349.602 99.071 349.314 99.089C349.08 99.107 348.873 99.152 348.693 99.224C348.513 99.296 348.297 99.386 348.045 99.494C347.361 99.89 346.704 100.277 346.074 100.655C345.462 101.033 344.868 101.537 344.292 102.167C344.166 102.311 344.04 102.482 343.914 102.68C343.788 102.878 343.653 103.094 343.509 103.328C343.419 103.418 343.329 103.616 343.239 103.922C343.149 104.228 343.068 104.525 342.996 104.813C342.942 105.083 342.915 105.245 342.915 105.299C342.915 105.299 342.888 105.389 342.834 105.569C342.78 105.731 342.69 105.893 342.564 106.055C342.348 106.343 342.168 106.487 342.024 106.487C341.88 106.487 341.664 106.343 341.376 106.055Z" fill="#1E1E1E" fill-opacity="0.93"/>
</svg>
